SplineFontDB: 3.0
FontName: Besley-it-MediumItalic
FullName: Besley* Medium Italic
FamilyName: Besley* Medium
Weight: Medium
Copyright: Copyright (c) 2017, Owen Earl,,, (EwonRael@yahoo.com)
UComments: "2016-4-15: Created with FontForge (http://fontforge.org)"
Version: 001.1
ItalicAngle: -13
UnderlinePosition: -100
UnderlineWidth: 50
Ascent: 800
Descent: 200
InvalidEm: 0
LayerCount: 2
Layer: 0 0 "Back" 1
Layer: 1 0 "Fore" 0
XUID: [1021 31 -699969567 16487490]
FSType: 0
OS2Version: 0
OS2_WeightWidthSlopeOnly: 0
OS2_UseTypoMetrics: 1
CreationTime: 1460762150
ModificationTime: 1500758481
PfmFamily: 17
TTFWeight: 500
TTFWidth: 5
LineGap: 100
VLineGap: 0
OS2TypoAscent: 800
OS2TypoAOffset: 0
OS2TypoDescent: -200
OS2TypoDOffset: 0
OS2TypoLinegap: 100
OS2WinAscent: 900
OS2WinAOffset: 0
OS2WinDescent: 300
OS2WinDOffset: 0
HheadAscent: 900
HheadAOffset: 0
HheadDescent: -200
HheadDOffset: 0
OS2CapHeight: 700
OS2XHeight: 460
OS2FamilyClass: 1024
OS2Vendor: 'PfEd'
OS2UnicodeRanges: 00000001.00000000.00000000.00000000
Lookup: 5 0 0 "'calt' Contextual Alternates lookup 1" { "'calt' Contextual Alternates lookup 1-1"  } ['calt' ('DFLT' <'dflt' > 'grek' <'dflt' > 'latn' <'dflt' > ) ]
Lookup: 1 0 0 "'ss01' Style Set 1 lookup 2" { "'ss01' Style Set 1 lookup 2-1"  } ['ss01' ('DFLT' <'dflt' > 'grek' <'dflt' > 'latn' <'dflt' > ) ]
Lookup: 4 0 1 "'liga' Standard Ligatures lookup 0" { "Not your mama's contextual ligatures"  } ['liga' ('DFLT' <'dflt' > 'grek' <'dflt' > 'latn' <'dflt' > ) ]
Lookup: 258 0 0 "Kern like there's no tomorrow" { "Get it right" [150,0,5] } ['kern' ('DFLT' <'dflt' > 'grek' <'dflt' > 'latn' <'dflt' > ) ]
MarkAttachClasses: 1
DEI: 91125
KernClass2: 19 21 "Get it right"
 3 A L
 15 B R G C U J S N
 3 D O
 7 E H I Z
 5 F P Y
 3 K X
 3 Q M
 3 V W
 9 a h m n u
 7 b e o p
 3 c q
 7 d j l i
 3 k x
 9 r v w y g
 68 quotedbl quotesingle quoteleft quoteright quotedblleft quotedblright
 1 f
 1 t
 1 T
 3 A J
 31 B D E F H I K L M N P R uniFFFD
 7 C G O Q
 3 S Z
 3 V W
 1 U
 1 X

StartChar: ampersand
Encoding: 38 38 0
Width: 874
Flags: HMW
LayerCount: 2
Fore
SplineSet
662 334 m 0
 627 334 603 368 603 406 c 0
 603 446 639 489 698 489 c 0
 766 489 799 436 799 375 c 0
 799 301.401577594 714.709083005 198.784970648 594.797794733 118.000003049 c 0
 572.136399058 102.732882315 546.833875839 95.250218235 573 70.0006103312 c 0
 582.776431328 60.5666163541 595.704928408 56.9999999999 617 57 c 0
 640.655712046 57 657.323793968 67.4814451852 672.780766624 87.9999877972 c 0
 684.205277484 103.165590927 683.011092822 112.849219413 701 100 c 2
 713 91.4285714286 l 2
 733.932096564 76.4770738829 726.402952409 67.0781253527 709.000002074 44.5327788172 c 4
 680.270314847 7.31375894074 626.919477231 -30 560 -30 c 0
 516.127973306 -30 481.939866006 -23.369575058 453 4.20203366169 c 0
 427.16166068 28.818753779 429.709889937 30.6404115279 389.000007129 17.8664362602 c 0
 332.996223085 0.293530052965 275.367895417 -10 219 -10 c 0
 76 -10 -5 57 -5 160 c 0
 -5 307.44251654 101.999655523 374.036412769 220.385036392 424 c 0
 252.833131596 437.694454698 267.872299541 434.234003226 254 470 c 0
 237 512 228 548 228 583 c 0
 228 683 343 765 489 765 c 0
 596 765 665 729 665 655 c 0
 665 549.580079057 571.039492383 498.548836561 463.000003639 453.209265018 c 0
 427.004151931 438.10333928 423.821209652 439.383917449 438.255555556 402 c 2
 522.427777778 184 l 2
 538.153952073 143.270339954 543.743679809 153.493945432 574.999994753 175.077283422 c 0
 660.142629638 233.87059509 715 299.971577941 715 329 c 0
 715 345 713 350 708 350 c 0
 699 350 696 334 662 334 c 0
254 65 m 0
 286.923553867 65 319.421400999 68.8128516193 350.9999926 75.547145296 c 0
 405.842364312 87.2425572287 400.971998136 91.0721952815 382.770448549 138 c 2
 305.973614776 336 l 2
 287.025587812 384.852396049 278.852552724 375.000613669 240.438675015 348 c 0
 183.908143911 308.265426928 145 256.590801851 145 180 c 0
 145 108 190 65 254 65 c 0
432.582681163 514 m 0
 490.875378302 547.250588184 531 589.3349435 531 655 c 0
 531 692 521 715 478 715 c 0
 411 715 373 673 373 620 c 0
 373 597.04525616 378.1616679 569.789122403 389.331323445 534 c 0
 400.067418155 499.600066525 401.889601599 496.49243904 432.582681163 514 c 0
EndSplineSet
EndChar

StartChar: period
Encoding: 46 46 1
Width: 230
Flags: HMW
LayerCount: 2
Back
SplineSet
40 50 m 4
 40 83 67 110 100 110 c 4
 133 110 160 83 160 50 c 4
 160 17 133 -10 100 -10 c 4
 67 -10 40 17 40 50 c 4
EndSplineSet
Fore
SplineSet
-35 65 m 0
 -35 109 1 145 45 145 c 0
 89 145 125 109 125 65 c 0
 125 21 89 -15 45 -15 c 0
 1 -15 -35 21 -35 65 c 0
EndSplineSet
EndChar

StartChar: zero
Encoding: 48 48 2
Width: 530
Flags: HMW
LayerCount: 2
Fore
SplineSet
160 190 m 0
 160 98 181 50 215 50 c 0
 289 50 370 198 370 370 c 0
 370 472 349 510 315 510 c 0
 231 510 160 362 160 190 c 0
20 190 m 0
 20 403 152 575 325 575 c 4
 418 575 510 523 510 370 c 0
 510 147 368 -15 205 -15 c 0
 122 -15 20 47 20 190 c 0
EndSplineSet
EndChar

StartChar: one
Encoding: 49 49 3
Width: 530
VWidth: 1155
Flags: HMW
LayerCount: 2
Fore
SplineSet
31 0 m 0
 6.18933293469 0 5 -1.02036702466 5 24 c 2
 5 48 l 2
 5 70.9473685361 6.10105214018 70 29 70 c 2
 127 70 l 2
 168.816354925 70 164.359149473 79.9230941566 172.128888889 112 c 2
 230.168945312 344 l 2
 237.46875 374.137695312 242.705834562 395 205 395 c 2
 109 395 l 2
 88.9814238658 395 92 399.103461962 92 418 c 2
 92 446 l 2
 92 472.741979189 107.99903784 465 132 465 c 0
 194.182064788 465 283.881320719 467.662953982 360.955227912 569.999999992 c 0
 368.750191354 580.349981736 369.405490546 590 389 590 c 2
 401 590 l 2
 428.428593518 590 416.916018965 577.003222782 412.406779661 558 c 2
 307.050847458 114 l 2
 301.962080053 92.5544802215 289.297851562 70 321 70 c 6
 389 70 l 2
 417.612105932 70 430 77.4004246754 430 46 c 2
 430 26 l 2
 430 -2.62460436453 426.786290559 0 399 0 c 0
 276.333333333 -0 153.666666667 0 31 0 c 0
EndSplineSet
EndChar

StartChar: two
Encoding: 50 50 4
Width: 530
VWidth: 1155
Flags: HMW
LayerCount: 2
Fore
SplineSet
465.824687544 131.999996391 m 0
 433.777071994 14.9281002781 372.655304506 -35 280 -35 c 0
 173 -35 148 30 85 30 c 0
 53.9932637176 30 32.1374394626 18.5613599656 18.9999968754 0.00938349414518 c 0
 10.004268251 -12.6938914908 14.0383600135 -20 -7 -20 c 2
 -32 -20 l 2
 -52.1790705654 -20 -47.3276012815 -14.9346606254 -43.412626793 1.74082970261e-13 c 0
 -5.65964605993 144.018296032 119.174153985 220.796075162 232 269 c 0
 334.8359375 312.935546875 377 376 377 440 c 0
 377 494 353 518 294 518 c 0
 250 518 179 498 179 473 c 0
 179 455 222 456 222 398 c 0
 222 351 182 320 145 320 c 0
 106 320 61 348 61 406 c 0
 61 508 190 575 322 575 c 0
 433 575 518 530 518 430 c 0
 518 320 410.857421875 254.379882812 247 205 c 0
 191.882449274 188.389900449 128.990659546 155.66986162 81.000002153 114.158757795 c 0
 39.6839403931 78.4210658668 60.4780176394 90.577374018 96.9999972212 110.824781105 c 4
 115.7572682 121.223617798 138.284862997 122.999999675 160 123 c 0
 240 123 251 83 317 83 c 0
 358.620378517 83 384.823741121 96.5669740025 399.000000467 127.575107896 c 0
 405.217251964 141.174278325 400.929425985 157 423 157 c 2
 447 157 l 2
 475.404097067 157 471.750259604 153.646472882 465.824687544 131.999996391 c 0
EndSplineSet
EndChar

StartChar: three
Encoding: 51 51 5
Width: 530
VWidth: 1155
Flags: HMW
LayerCount: 2
Fore
SplineSet
-60 -21 m 0
 -60 47 -17 95 32 95 c 0
 76 95 106 67 106 37 c 0
 106 -34 47 -26 47 -56 c 0
 47 -83 82 -99 136 -99 c 0
 235 -99 299 -14 299 90 c 0
 299 165.889841125 259.821306218 195.254983384 194.000005556 200.217933075 c 0
 177.668414064 201.449340935 172 197.162289794 172 216 c 2
 172 254 l 2
 172 272.485351562 191.182917494 270.12182234 206 271.472824056 c 0
 326.895885622 282.495948809 359 353.791016501 359 431 c 0
 359 485 338 516 276 516 c 0
 232 516 174 492 174 466 c 0
 174 443 211 430 211 394 c 0
 211 347 166 326 139 326 c 0
 110 326 65 344 65 402 c 0
 65 484 164 575 316 575 c 0
 407 575 500 541 500 431 c 0
 500 350.06114548 454.425645892 270.980847729 332 244.41709992 c 0
 295.332910382 236.461125382 294.432643637 236.838288056 331.162498777 228 c 0
 398.619460301 211.767862546 439.999999938 168.158873623 440 90 c 0
 440 -50 317 -165 136 -165 c 0
 4 -165 -60 -93 -60 -21 c 0
EndSplineSet
EndChar

StartChar: four
Encoding: 52 52 6
Width: 530
VWidth: 1155
Flags: HMW
LayerCount: 2
Fore
SplineSet
410 -102 m 2
 410 -129 l 2
 410 -154.679953481 403.113553785 -150 379 -150 c 2
 141 -150 l 2
 116.752438779 -150 105 -156.680866136 105 -130 c 2
 105 -106 l 2
 105 -79.5653473358 105.538617281 -80 132 -80 c 2
 179 -80 l 2
 213.932731139 -80 208.796266219 -66.669886428 214.812030075 -40 c 2
 229.92481203 27 l 2
 235.801911161 53.0551394785 239.180210677 55 206 55 c 2
 18 55 l 2
 1.81890240748 55 -15 48.7201919429 -15 67 c 2
 -15 87 l 2
 -15 109.02263093 -10.4033766666 116.805265311 -2.66388138968 130.999983144 c 0
 69.0421204629 262.513270093 276.510115729 397.402233415 306.396275455 528.999983132 c 0
 311.112698466 549.767812138 303.123293225 560 329 560 c 2
 412 560 l 2
 444.460414354 560 440.028489057 549.137547663 433.109366753 522 c 0
 396.395524283 378.004330301 163.060016056 256.711500421 77.86966321 147 c 0
 63.4792316382 128.467433968 57.6461757644 125 91 125 c 6
 233 125 l 2
 256.522231178 125 253.5531524 131.752308971 257.669172932 150 c 2
 276.165413534 232 l 2
 281.385448171 255.142153559 291.875449082 255.578176051 311.999998969 266.071314037 c 0
 343.666909681 282.582752333 381.870335039 304.574571928 400.999999408 341.896878835 c 0
 407.2581799 354.106697498 404.571508119 359 424 359 c 0
 445.065142188 359 442.660126801 357.533936793 438.827111984 341 c 2
 394.548133595 150 l 2
 389.99922482 130.378012148 383.513147096 125 410 125 c 2
 455 125 l 2
 464.823214451 125 470 127.832920929 470 117 c 2
 470 76 l 2
 470 58.2795851945 472.488927781 55 454 55 c 2
 398 55 l 2
 373.518933691 55 372.477532676 54.7971536612 367.888015717 35 c 2
 350.269155206 -41 l 2
 344.230677227 -67.0473329788 331.334016028 -80 368 -80 c 2
 392 -80 l 2
 412.053924212 -80 410 -82.5639262517 410 -102 c 2
EndSplineSet
EndChar

StartChar: five
Encoding: 53 53 7
Width: 530
VWidth: 1155
Flags: HMW
LayerCount: 2
Fore
SplineSet
-35 -11 m 0
 -35 55 10 85 49 85 c 4
 96 85 126 59 126 12 c 0
 126 -44 74 -44 74 -67 c 0
 74 -84 92 -108 146 -108 c 0
 235 -108 319 -24 319 110 c 0
 319 204 295 246 246 246 c 0
 212.274848353 246 178.549696706 240.463778971 140 218.777337785 c 0
 121.705422293 208.485576309 113.112051877 197 80 197 c 2
 65 197 l 2
 31.4775390625 197 45.1220430659 221.499277445 51.9184782609 242 c 2
 150.048913043 538 l 2
 159.440816558 566.329676175 164.415174396 565 202 565 c 2
 292 565 l 2
 385.254082433 565 415.163453905 554.254022248 440 570.61752526 c 0
 455.417867367 580.775552795 457.897473504 597 492 597 c 2
 506 597 l 2
 537.571085993 597 534.574350569 595.943215206 525.736111111 574 c 2
 506 525 l 2
 475.15625 448.422851562 487 435 250 435 c 2
 220 435 l 2
 184.52646175 435 184.860347024 431.857440204 176.288043478 406 c 2
 143.798913043 308 l 2
 130.323640293 267.353275639 144.247621309 286.643462455 174 297.591200646 c 4
 205.294090587 309.106229888 239.706413671 315 278 315 c 0
 399 315 460 230 460 130 c 0
 460 -50 347 -165 156 -165 c 0
 34 -165 -35 -103 -35 -11 c 0
EndSplineSet
EndChar

StartChar: six
Encoding: 54 54 8
Width: 530
VWidth: 1155
Flags: HMW
LayerCount: 2
Fore
SplineSet
215 415.838867188 m 4
 245.098900455 448.010352882 292.605040194 464.999999997 346 465 c 0
 427 465 500 420 500 290 c 0
 500 150 410 -15 209 -15 c 0
 88 -15 30 70 30 220 c 0
 30 470 203 725 384 725 c 0
 466 725 535 693 535 611 c 0
 535 553 500 525 451 525 c 0
 404 525 374 547 374 594 c 0
 374 640 406 642 406 660 c 0
 406 668 393 673 374 673 c 0
 292.597993131 673 222.426187614 561.165911545 186.210572874 422.00000525 c 0
 167.389197719 349.675021952 182.069335938 380.640625 215 415.838867188 c 4
160 220 m 0
 160 138.818359375 171.305664062 50 219 50 c 0
 308 50 360 186 360 290 c 0
 360 354 348 396 309 396 c 0
 241 396 160 300 160 220 c 0
EndSplineSet
EndChar

StartChar: seven
Encoding: 55 55 9
Width: 530
VWidth: 1155
Flags: HMW
LayerCount: 2
Fore
SplineSet
48.0320199308 428.00000351 m 0
 80.788565405 537.921094067 141.027259776 585 231 585 c 0
 338 585 363 520 426 520 c 0
 452.68672431 520 472.594804914 528.473304633 486.000003695 542.662295061 c 0
 497.333513964 554.658466945 494.278685387 570 518 570 c 2
 540 570 l 2
 568.012025439 570 560.986574882 558.612724482 552.261685136 536.00000254 c 0
 522.101964282 457.83358424 409.153187077 324.230106181 309 218 c 0
 228.594726562 132.715820312 213 99 213 55 c 0
 213 -8 261 -4 261 -80 c 0
 261 -137 211 -165 157 -165 c 0
 108 -165 66 -131 66 -52 c 0
 66 37 138.556640625 138.651367188 230 231 c 0
 286.670580086 288.231584738 353.264519916 358.933983183 406.374959958 421.999996818 c 0
 436.441892798 457.702988451 434.876953125 459.020507812 388 440.998046875 c 4
 364.771484375 432.06640625 341.540039062 427 321 427 c 4
 241 427 250 467 184 467 c 0
 160.588948197 467 134.66147148 455.927730374 118.000000656 430.926844258 c 0
 108.504020785 416.677927472 111.707988538 393 86 393 c 2
 58 393 l 2
 29.6052260727 393 42.6466464697 409.928313858 48.0320199308 428.00000351 c 0
EndSplineSet
EndChar

StartChar: eight
Encoding: 56 56 10
Width: 530
VWidth: 1155
Flags: HMW
LayerCount: 2
Fore
SplineSet
150 140 m 0
 150 86 160 47 205 47 c 0
 278 47 330 126 330 240 c 0
 330 294 319 335 280 335 c 0
 201 335 150 234 150 140 c 0
105 490 m 0
 105 600 204 725 345 725 c 0
 446 725 525 680 525 570 c 0
 525 498.917243198 480.659179688 429.922851562 413.359375 390 c 4
 356.185546875 356.084960938 372.571289062 374.258789062 413.323242188 342 c 4
 445.88671875 316.223632812 469.999999995 281.424859249 470 230 c 0
 470 110 376 -15 195 -15 c 0
 74 -15 10 40 10 140 c 0
 10 241.033974109 61.895114625 325.411844264 158.585961041 353.999997582 c 0
 209.274046074 368.986718662 178.206167606 364.117181929 147.37007466 388 c 0
 120.827152424 408.557720589 104.999999971 440.764252998 105 490 c 0
245 490 m 0
 245 426 256 395 285 395 c 0
 344 395 385 496 385 570 c 0
 385 644 369 665 345 665 c 0
 286 665 245 564 245 490 c 0
EndSplineSet
EndChar

StartChar: A
Encoding: 65 65 12
Width: 910
Flags: HMW
LayerCount: 2
Fore
SplineSet
450.294117647 540 m 6
 302.516339869 302 l 2
 287.104755971 277.179238564 280.712853818 275 323 275 c 2
 509 275 l 2
 542.420233972 275 541.458735219 275.227643677 536.697841727 304 c 2
 494.338129496 560 l 2
 487.028477792 615.160466313 483.866986866 605.372763445 470 575.303078111 c 0
 464.39405625 563.146943098 457.153867944 551.047808374 450.294117647 540 c 6
595.117647059 738 m 2
 717.183006535 94 l 2
 720.669294162 75.6068273506 720.940058862 75 743 75 c 2
 799 75 l 2
 818.711353503 75 825 79.1665591541 825 58 c 2
 825 16 l 2
 825 -4.36653941494 817.999814116 0 799 0 c 2
 499 0 l 2
 482.290618591 0 475 -4.34084659761 475 14 c 2
 475 40 l 2
 475 62.3477575384 468.304005945 75 493 75 c 2
 547 75 l 2
 577.116910673 75 574.269975802 76.933624502 570.122302159 102 c 2
 558.539568345 172 l 2
 555.332199074 191.383666467 559.340114598 200 535 200 c 2
 273 200 l 2
 241.916561472 200 238.257047566 198.508718712 226.764705882 180 c 2
 185.784313726 114 l 2
 167.157924281 84.0017096319 149.18911547 75 205 75 c 2
 251 75 l 2
 270.149222858 75 275 78.4657573133 275 58 c 2
 275 24 l 2
 275 -3.85164671135 269.836870756 0 243 0 c 2
 -29 0 l 2
 -53.8106670653 0 -55 -1.02036702466 -55 24 c 2
 -55 52 l 2
 -55 74.3802473142 -55.5184812062 75 -33 75 c 2
 41 75 l 2
 73.6552365072 75 73.3312923592 84.9967471976 85.2549019608 104 c 2
 491.843137255 752 l 2
 500.415709134 765.662536432 506.452063791 765 529 765 c 2
 553 765 l 2
 586.317303729 765 589.692883568 766.620303937 595.117647059 738 c 2
EndSplineSet
EndChar

StartChar: B
Encoding: 66 66 13
Width: 772
Flags: HMW
LayerCount: 2
Fore
SplineSet
387 0 m 2
 -18 0 l 2
 -36.9979852033 0 -45 -4.83713619284 -45 16 c 2
 -45 58 l 2
 -45 79.4363962321 -38.0305674464 75 -18 75 c 2
 44 75 l 2
 89.5499037494 75 84.9657286485 84.2143530396 92.6 120 c 2
 205.666666667 650 l 2
 210.425721388 672.308069008 214.352643641 675 186 675 c 2
 102 675 l 2
 82.0485985855 675 83 676.107462244 83 696 c 2
 83 730 l 2
 83 757.40014216 97.0893146573 750 122 750 c 6
 527 750 l 2
 678 750 757 670 757 570 c 0
 757 454.815125991 680.932683518 404.493855185 563.664145036 387.339738103 c 1
 663.226759795 369.25819634 717.000000009 318.275877999 717 225 c 0
 717 85 628 0 387 0 c 2
377 75 m 2
 523 75 567 156 567 225 c 0
 567 294 533 350 457 350 c 2
 310 350 l 2
 279.370011709 350 280.936354444 346.576661454 275.693333334 322 c 2
 233.026666667 122 l 2
 224.934343605 84.06723565 213.897193253 75 264 75 c 6
 377 75 l 2
326 425 m 6
 447 425 l 2
 523 425 617 471 617 570 c 0
 617 629 593 675 527 675 c 2
 390 675 l 2
 358.961969124 675 351.783850126 678.674297465 346.093333333 652 c 2
 305.56 462 l 2
 299.730647057 434.674908078 289.348965777 425 326 425 c 6
EndSplineSet
EndChar

StartChar: C
Encoding: 67 67 14
Width: 817
Flags: HMW
LayerCount: 2
Fore
SplineSet
738 242.083101403 m 4
 687.558908145 118.15614648 573.945840359 -10 360 -10 c 0
 167 -10 40 95 40 305 c 0
 40 516 222 760 500 760 c 0
 585.521224637 760 644.834430951 739.115485399 686 706.703910067 c 0
 724.359318595 676.501826796 719.900832444 651.028109569 749.307692308 702 c 2
 765.461538462 730 l 2
 773.479266351 743.897395008 772.961992315 750 796 750 c 2
 830 750 l 2
 853.389489516 750 851.843250628 749.259794632 847.764705882 730 c 2
 805.411764706 530 l 2
 801.627101789 512.127980672 805.613960861 495 782 495 c 2
 750 495 l 2
 715.945618636 495 726.650692656 502.606115266 725.099415294 529.999986746 c 0
 719.664621691 625.972532483 618.251266472 679 508 679 c 0
 307 679 195 480 195 305 c 0
 195 163 264 73 378 73 c 0
 513.580862403 73 605.181114806 150.612841175 651.99993408 251.382550624 c 0
 660.012522697 268.628312892 657.548542131 275 684 275 c 2
 730 275 l 2
 759.88170562 275 745.40665489 260.280252831 738 242.083101403 c 4
EndSplineSet
EndChar

StartChar: D
Encoding: 68 68 15
Width: 848
Flags: HMW
LayerCount: 2
Fore
SplineSet
338 0 m 2
 -28 0 l 2
 -48.3941956326 0 -45 4.79686296589 -45 24 c 2
 -45 58 l 2
 -45 79.4363962321 -38.0305674464 75 -18 75 c 2
 42 75 l 2
 86.3442764188 75 78.9568688358 98.2353226679 86.16 132 c 2
 195.386666667 644 l 2
 199.965722959 665.464326371 209.518768954 675 180 675 c 2
 108 675 l 2
 81.5653473358 675 82 675.538617281 82 702 c 2
 82 736 l 2
 82 755.356619717 92.4312555025 750 110 750 c 6
 488 750 l 2
 741 750 808 608 808 465 c 0
 808 172 561 0 338 0 c 2
246 75 m 6
 338 75 l 2
 502 75 653 243 653 485 c 0
 653 597 622 675 488 675 c 2
 374 675 l 2
 348.428533073 675 342.634398253 677.973741813 337.946666667 656 c 2
 223.6 120 l 2
 216.943423516 88.7972977325 203.097218537 75 246 75 c 6
EndSplineSet
EndChar

StartChar: E
Encoding: 69 69 16
Width: 749
Flags: HMW
LayerCount: 2
Fore
SplineSet
280.066666667 340 m 6
 228.84 114 l 2
 222.344037813 85.3413432924 211.038281858 75 250 75 c 2
 403 75 l 2
 533.057187423 75 591.918525945 113.752170921 631.772082064 252 c 0
 636.760354285 269.303796009 634.171307446 275 658 275 c 2
 686 275 l 2
 703.89995168 275 707.806189098 274.180030799 704.927272727 262 c 6
 650.090909091 30 l 2
 644.665451258 7.04613993576 647.932859352 0 618 0 c 2
 -20 0 l 2
 -47.6089968348 0 -45 3.2104131733 -45 30 c 2
 -45 60 l 2
 -45 81.4195387734 -31.1872964832 75 -12 75 c 2
 50 75 l 2
 83.2317780777 75 81.0555344969 79.6567698394 87.0266666667 106 c 2
 211.24 654 l 2
 216.901381936 678.976685011 210.783128757 675 182 675 c 2
 126 675 l 2
 96.8146534766 675 99 677.603026599 99 706 c 2
 99 734 l 2
 99 754.767559832 106.956651808 750 126 750 c 2
 758 750 l 2
 797.76754755 750 793.39791086 747.352883953 786.266666667 716 c 2
 748.964705882 552 l 2
 743.135371621 526.371030401 748.144981959 495 714 495 c 2
 694 495 l 2
 653.445578286 495 671.18887158 516.630604528 675.140407542 544 c 0
 689.361993037 642.502506705 661.713023762 675 560 675 c 2
 394 675 l 2
 368.68020182 675 357.115747194 679.922414091 352.146666667 658 c 2
 309.08 468 l 2
 300.483294296 430.073357188 286.73317922 418 338 418 c 0
 411.876293632 418 457.631228607 445.400298178 482.000000695 494.690279814 c 0
 488.137294682 507.103999586 486.278555032 523 506 523 c 2
 538 523 l 2
 561.396083184 523 557.298913927 520.033866614 553.036363636 502 c 2
 500.090909091 278 l 2
 495.568664442 258.867426487 499.396938632 248 474 248 c 2
 444 248 l 2
 418.751677026 248 433.5585987 274.47478624 432.590695928 291.99999667 c 0
 430.3135291 333.231232935 404.029379986 358 338 358 c 2
 310 358 l 2
 286.993971391 358 284.397866868 359.108236181 280.066666667 340 c 6
EndSplineSet
EndChar

StartChar: F
Encoding: 70 70 17
Width: 729
Flags: HMW
LayerCount: 2
Fore
SplineSet
261.906666666 304 m 2
 221.106666667 124 l 2
 213.929697368 92.336900154 207.437046369 75 242 75 c 2
 293 75 l 2
 310.236328125 75 312 70.1684992291 312 54 c 2
 312 17 l 2
 312 0.119140625 302.883789062 0 287 0 c 2
 -22 0 l 2
 -40.1433610548 0 -45 -3.41058218243 -45 16 c 2
 -45 54 l 2
 -45 74.9291211072 -44.9998206451 75 -24 75 c 2
 33 75 l 6
 70.5302734375 75 71.7754006889 82.8326500982 78.3866666667 112 c 2
 201.24 654 l 2
 206.098362386 675.433951701 196.196289062 675 170 675 c 2
 104 675 l 2
 82.9363637335 675 79 672.019171248 79 694 c 2
 79 734 l 2
 79 755.337266074 88.5130721976 750 108 750 c 2
 754 750 l 2
 780.606563979 750 783.806578414 749.164025348 779.37254902 730 c 2
 731.709803922 524 l 2
 727.99328684 507.93708719 731.458481035 495 710 495 c 2
 676 495 l 2
 644.086856171 495 668.474267318 582.215138018 667.472495308 598.000000424 c 0
 663.867421729 654.804931946 630.181521764 675 550 675 c 2
 382 675 l 2
 346.999166172 675 345.869083999 674.422429407 339.426666667 646 c 2
 291.373333333 434 l 2
 286.674508927 413.269892324 280.226319464 408 308 408 c 2
 338 408 l 2
 411.199594945 408 449.711535734 434.900629753 472 483.34132156 c 0
 479.614522805 499.890364512 475.707112765 513 502 513 c 2
 524 513 l 2
 547.827634375 513 548.156371076 513.685627026 543.666666667 494 c 2
 489.385964912 256 l 2
 483.988898343 232.335938887 486.049629563 228 456 228 c 2
 440 228 l 2
 406.552534243 228 424.168118801 251.235216828 424.061219424 273.999996717 c 0
 423.873241403 314.030896564 402.954750602 338 338 338 c 2
 302 338 l 2
 265.864981189 338 268.397406802 332.635618247 261.906666666 304 c 2
EndSplineSet
EndChar

StartChar: G
Encoding: 71 71 18
Width: 877
Flags: HMW
LayerCount: 2
Fore
SplineSet
556 380 m 2
 838 380 l 2
 861.918995551 380 862 379.999795023 862 356 c 2
 862 326 l 2
 862 298.301188392 864.724305485 295 836 295 c 2
 796 295 l 2
 771.910012651 295 767.115240807 296.979257542 761.651515151 278 c 2
 743.227272727 214 l 2
 734.298252453 182.983403257 727.516031289 164.411986156 710 141.133537708 c 0
 657.819563407 71.7868013848 551.017105555 -10 369 -10 c 0
 171 -10 40 102 40 305 c 0
 40 536 242 760 500 760 c 0
 584.028412241 760 644.732411965 739.838219689 688 708.390600613 c 0
 718.377477811 686.311732942 732.533287086 656.343212438 749.645868389 686 c 6
 780.80498798 740 l 2
 787.346755563 751.337144762 793.96699866 750 812 750 c 2
 840 750 l 2
 864.58546057 750 861.044960603 747.490122411 856.927493106 728 c 2
 812.563062959 518 l 2
 808.260493742 497.63369455 809.470109556 495 784 495 c 2
 748 495 l 2
 725.965545579 495 735.274457568 506.705376375 735.016545517 523.999986489 c 0
 733.528838465 623.760014586 629.676427711 679 508 679 c 0
 307 679 195 480 195 305 c 0
 195 173 251 67 370 67 c 0
 449.971137924 67 500.990791462 78.5805937543 552 120.214785126 c 0
 570.198023346 135.068181372 579.394303645 146.371848098 587.335329341 174 c 2
 616.077844311 274 l 2
 622.377253577 295.916694736 621.894084288 295 594 295 c 2
 542 295 l 2
 522.611287335 295 522 294.483112214 522 314 c 2
 522 354 l 2
 522 383.902887327 527.147757285 380 556 380 c 2
EndSplineSet
EndChar

StartChar: H
Encoding: 72 72 19
Width: 913
Flags: HMW
LayerCount: 2
Fore
SplineSet
602 350 m 2
 302 350 l 2
 274.128456453 350 270.972375138 351.43300846 265.973333334 328 c 2
 220.32 114 l 2
 214.300963507 85.7857664397 203.0181361 75 241 75 c 2
 298 75 l 2
 317.971225523 75 325 75.498046875 325 54 c 2
 325 26 l 2
 325 2.04336210881 326.764823381 0 302 0 c 2
 -22 0 l 2
 -40.1433610548 0 -45 -3.41058218243 -45 16 c 2
 -45 54 l 6
 -45 70.9423828125 -44.999854808 75 -28 75 c 2
 42 75 l 2
 77.2028198867 75 73.5677076073 82.3486294091 79.4666666667 110 c 2
 194.24 648 l 2
 198.946994368 670.064036102 205.081102191 675 176 675 c 2
 120 675 l 2
 99.2450889705 675 103 680.506370057 103 700 c 2
 103 734 l 2
 103 756.366959261 115.741061589 750 136 750 c 2
 434 750 l 2
 455.249289651 750 463 754.895413048 463 732 c 2
 463 702 l 2
 463 677.656085721 465.221540363 675 440 675 c 2
 368 675 l 2
 340.624340944 675 339.890866536 674.48843689 335.093333333 652 c 2
 293.28 456 l 2
 289.808686315 439.728217102 278.677996888 425 302 425 c 2
 612 425 l 2
 641.38877115 425 641.852089978 425.869171769 647 450 c 2
 691.373333333 658 l 2
 694.609490544 673.169486925 697.279797676 675 678 675 c 2
 618 675 l 2
 596.364154432 675 598 676.950677173 598 698 c 2
 598 736 l 2
 598 751.09890114 599.304802038 750 614 750 c 2
 938 750 l 2
 957.932496293 750 958 749.999829186 958 730 c 2
 958 704 l 2
 958 679.593189969 961.472687194 675 936 675 c 2
 860 675 l 2
 832.824071769 675 834.317407082 671.800345697 829.666666667 650 c 2
 715.32 114 l 2
 708.740527568 83.1587229754 699.121509567 75 740 75 c 2
 790 75 l 2
 821.425371945 75 820 73.3423221964 820 42 c 2
 820 16 l 2
 820 -7.01455270521 804.595388394 0 784 0 c 2
 472 0 l 2
 451.183308729 0 450 -1.01326988751 450 20 c 2
 450 54 l 2
 450 75.4494493775 450.540708312 75 472 75 c 2
 548 75 l 2
 572.915490973 75 569.09251116 84.8086460638 573.186666667 104 c 2
 617.56 312 l 2
 622.664939955 335.929406037 635.357380272 350 602 350 c 2
EndSplineSet
EndChar

StartChar: I
Encoding: 73 73 20
Width: 418
Flags: HMW
LayerCount: 2
Fore
SplineSet
290 0 m 2
 -22 0 l 2
 -46.6722879049 0 -45 1.97135214519 -45 26 c 2
 -45 60 l 2
 -45 82.213633663 -27.7950245696 75 -8 75 c 2
 54 75 l 2
 79.2253699965 75 75.1968085302 86.7325686605 79.4613333333 106 c 2
 202.08 660 l 2
 206.154592073 678.409301535 200.570565913 675 180 675 c 2
 130 675 l 2
 103.091130005 675 103 675.000230599 103 702 c 2
 103 728 l 2
 103 751.660484194 104.964110504 750 128 750 c 6
 438 750 l 2
 464.695055262 750 463 748.013315289 463 722 c 2
 463 696 l 2
 463 676.182275881 464.011056523 675 444 675 c 2
 372 675 l 2
 343.917057613 675 344.933046326 672.422937847 340 650 c 2
 222.08 114 l 2
 217.04328429 91.1058376837 203.318364927 75 236 75 c 2
 304 75 l 2
 331.708923051 75 325 63.3477772014 325 38 c 0
 325 1.78223462457 326.529017484 0 290 0 c 2
EndSplineSet
EndChar

StartChar: J
Encoding: 74 74 21
Width: 606
Flags: HMW
LayerCount: 2
Fore
SplineSet
389 675 m 6
 317 675 l 2
 293.89725917 675 296 677.571694588 296 700 c 2
 296 730 l 2
 296 752.521190061 299.204374205 750 321 750 c 2
 641 750 l 2
 660.646428902 750 671 755.665841858 671 734 c 2
 671 702 l 2
 671 681.272141763 675.231427503 675 653 675 c 2
 581 675 l 2
 554.862878872 675 556.947451943 670.476321152 552.041666667 650 c 2
 472.5 318 l 2
 465.871000622 290.331133031 459.65575693 262.123345468 451.412310665 236.000006504 c 0
 406.381363743 93.2977127623 310.375924335 -10 161 -10 c 0
 4 -10 -35 85 -35 155 c 0
 -35 227 14 270 64 270 c 0
 109 270 148 247 148 201 c 0
 148 132 84 148 84 106 c 0
 84 89 99 65 161 65 c 0
 227.535875718 65 282.421835989 101.990882881 314.791890323 216 c 0
 319.805412729 233.657902494 324.008554125 253.342283509 328.215686275 272 c 2
 411.647058823 642 l 2
 417.866435286 669.581582571 424.896798794 675 389 675 c 6
EndSplineSet
EndChar

StartChar: K
Encoding: 75 75 22
Width: 870
Flags: HMW
LayerCount: 2
Fore
SplineSet
752 -3 m 6
 652 -3 l 2
 432.908324695 -3 519.252303195 210.777927765 412.313529854 332.999997599 c 0
 390.146401399 358.335170591 385.635096962 350.155405283 362 329.869565217 c 2
 278 257.77294686 l 2
 251.993386346 235.451650439 242.254085726 225.427662391 233.14 184 c 2
 215.54 104 l 2
 208.146528681 70.3933121877 209.404697593 72 250 72 c 2
 280 72 l 2
 294.418397978 72 301 75.8423390991 301 60 c 2
 301 26 l 2
 301 6.27348769382 305.159895676 -0.00206009836411 284 0.0177511915039 c 0
 182.028255567 0.113223863877 80.0989409857 0.0157279530395 -22 0.00164457687534 c 0
 -44.9206601887 -0.00151706492281 -45 0.000109176591319 -45 23 c 2
 -45 63 l 2
 -45 78.4336454775 -39.3710998026 75 -25 75 c 2
 41 75 l 0
 72.5 75 l 1
 77.12 96 l 0
 198.12 646 l 0
 204.5 675 l 1
 176 675 l 0
 128 675 l 2
 105.838748618 675 110 681.211929563 110 702 c 2
 110 730 l 2
 110 750.982901543 111.139538537 749.992599331 132 749.94782928 c 0
 226.553776948 749.74490101 319.684417794 749.814834747 414 749.940957095 c 0
 437.292977048 749.972105341 456 758.26568147 456 732 c 2
 456 690 l 2
 456 666.169055679 445.789022908 672 424 672 c 2
 374 672 l 2
 341.106045937 672 340.736514516 670.810528737 334.797585707 644 c 2
 278.975857075 392 l 2
 264.174214913 325.179893994 279.293196445 351.859924355 314 382.086601308 c 2
 618 646.844771242 l 2
 633.282807594 660.154798117 662.213667407 672 620 672 c 2
 594 672 l 2
 561.635235232 672 543 662.216091255 543 698 c 2
 543 730 l 2
 543 751.635845568 544.950677173 750 566 750 c 2
 832 750 l 2
 853.948909494 750 865 756.175167151 865 732 c 2
 865 692 l 2
 865 668.657402687 860.472338821 672 838 672 c 2
 794 672 l 2
 760.706873777 672 754.683181383 666.906820736 738 652.587761675 c 2
 484 434.581320451 l 2
 448.170099867 403.828765265 466.085127691 408.540491134 500.552431698 385.00000204 c 0
 658.421803859 277.178333338 603.523585499 72 718 72 c 2
 760 72 l 2
 783.599935591 72 797 79.0820342437 797 53 c 2
 797 23 l 2
 797 -11.0752983463 783.203006897 -3 752 -3 c 6
EndSplineSet
EndChar

StartChar: L
Encoding: 76 76 23
Width: 731
Flags: HMW
LayerCount: 2
Fore
SplineSet
584 0 m 6
 -6 0 l 2
 -32.5433068735 0 -45 -7.18382978218 -45 22 c 2
 -45 56 l 2
 -45 81.4913796447 -33.2582031288 75 -10 75 c 2
 50 75 l 2
 92.0340549827 75 86.5768167773 87.0788286435 93.6 120 c 2
 205.386666667 644 l 2
 212.132796787 675.622484939 212.249065507 675 174 675 c 2
 136 675 l 2
 104.239570607 675 99 670.923850058 99 704 c 2
 99 724 l 2
 99 758.075298346 112.796993103 750 144 750 c 2
 422 750 l 2
 450.415571194 750 455 753.582772668 455 724 c 2
 455 704 l 2
 455 675.097880376 454.999752319 675 426 675 c 2
 386 675 l 2
 349.553211834 675 351.200745332 671.253493744 344.96 642 c 2
 232.746666667 116 l 2
 224.268922902 76.2605761031 221.396321377 75 270 75 c 2
 381 75 l 2
 506.555659836 75 565.758627806 111.116022155 605.563382018 238 c 0
 614.79040379 267.412597798 611.15478023 275 652 275 c 0
 690.244827447 275 685.242700451 271.796040371 678.2 242 c 2
 631.872727273 46 l 2
 623.730903684 11.5538232782 628.944769209 0 584 0 c 6
EndSplineSet
EndChar

StartChar: M
Encoding: 77 77 24
Width: 1043
Flags: HMW
LayerCount: 2
Fore
SplineSet
781.959136341 609 m 0
 774 591 765.321496055 571.681865828 756.131578947 554 c 2
 483.789473684 30 l 2
 472.682255494 8.62914981034 473.354042511 -10 439 -10 c 2
 403 -10 l 2
 367.531037336 -10 372.641986793 -0.443610768357 368.457894737 29 c 2
 293.994736842 553 l 2
 292.003641246 567.011413453 290.356775372 581.516426435 288.583007812 596 c 0
 283.453125 637.887695312 281.640537419 645.211955016 271.399408525 594 c 0
 268.825889404 581.130818605 266.162704 568.227178378 263.146666667 556 c 2
 154.613333333 116 l 2
 147.692319371 87.9418352873 134.078147755 75 174 75 c 2
 232 75 l 2
 244.929041204 75 255 79.5170219858 255 65 c 2
 255 24 l 2
 255 -3.44473965493 250.502720357 0 224 0 c 2
 -25 0 l 2
 -48.758680881 0 -55 -4.40906615209 -55 21 c 2
 -55 45 l 2
 -55 70.4108211944 -58.5018452923 75 -32 75 c 2
 25 75 l 2
 65.6899611597 75 60.4307148849 88.5422955982 68.1466666667 119 c 2
 209 675 l 1
 112 675 l 1
 112 702 l 0
 112 728 l 2
 112 756.810776116 123.614789772 750 150 750 c 2
 356 750 l 2
 395.089960379 750 396.914660456 750.650714024 401.459016393 716 c 2
 457.065573771 292 l 2
 460.032767402 269.375148564 462.297087359 247.240409312 463.749382913 222 c 0
 467.480740763 157.150252862 472.641601562 171.077148438 494.336914062 218 c 0
 505.582725246 242.322559486 515.95965431 266.639326349 527.947368421 290 c 2
 744.5 712 l 2
 761.247694554 744.636532977 762.424326989 750 814 750 c 2
 1030 750 l 2
 1057.90549481 750 1058 749.99976086 1058 722 c 2
 1058 708 l 2
 1058 682.665951044 1063.17174473 675 1036 675 c 2
 968 675 l 2
 933.927123411 675 934.640882082 672.928165855 929.626666667 644 c 2
 838.453333333 118 l 2
 831.869544272 80.0166015698 825.30445418 75 872 75 c 2
 922 75 l 2
 943.283786574 75 956 81.5595107383 956 58 c 2
 956 24 l 2
 956 2.63618866281 958.163430263 0 936 0 c 2
 640 0 l 2
 610.734787341 0 596 -8.23355620146 596 24 c 2
 596 46 l 2
 596 71.7101322358 593.316282738 75 620 75 c 2
 678 75 l 2
 710.658820463 75 704.654146451 92.5230358403 709.24 118 c 2
 785.38 541 l 2
 788.872257501 560.401430564 794.194335938 579.853515625 797.202148438 600 c 0
 809.883789062 665.795898438 784.55894033 614.87959168 781.959136341 609 c 0
EndSplineSet
EndChar

StartChar: N
Encoding: 78 78 25
Width: 938
Flags: HMW
LayerCount: 2
Fore
SplineSet
148 675 m 4
 125.226420537 675 115 668.986779622 115 694 c 2
 115 722 l 2
 115 742.218277645 110.182481812 750 132 750 c 2
 311 750 l 2
 340.14677642 750 340.663549884 745.536754248 351.129032258 728 c 2
 628.032258064 264 l 2
 654.689812174 219.330585005 655.569160919 205.091242471 669.2 270 c 2
 747.95 645 l 2
 752.014770289 664.356048996 761.79832056 675 735 675 c 2
 685 675 l 2
 659.191201962 675 658 673.978197609 658 700 c 2
 658 724 l 2
 658 752.172581414 660.596766166 750 688 750 c 2
 912 750 l 2
 940.612105932 750 953 757.400424675 953 726 c 2
 953 692 l 2
 953 669.277768499 942.74429516 675 922 675 c 2
 870 675 l 2
 836.451617109 675 838.362763743 670.97312778 832.684210527 644 c 2
 705.105263158 38 l 2
 701.178807195 19.3493341785 704.277392086 -10 680 -10 c 2
 658 -10 l 2
 624.87753835 -10 624.554601022 8.04205277945 613 28 c 2
 289.947368421 586 l 2
 270.202460246 620.104841393 268.642911474 635.826147537 257.8 585 c 2
 159.453333333 124 l 2
 153.496186259 96.0758730902 136.294328856 75 176 75 c 2
 228 75 l 2
 251.599935591 75 265 82.0820342437 265 56 c 2
 265 22 l 2
 265 -4.37082453815 258.833546377 0 234 0 c 2
 -8 0 l 2
 -34.0931440159 0 -45 -6.61459958351 -45 22 c 2
 -45 50 l 2
 -45 77.1594733636 -42.4091414176 75 -16 75 c 2
 34 75 l 2
 74.6982032469 75 68.9017743123 88.6020670891 75.6 120 c 2
 185.68 636 l 2
 193.982479807 674.917874095 195.30029145 675 148 675 c 4
EndSplineSet
EndChar

StartChar: O
Encoding: 79 79 26
Width: 860
Flags: HMW
LayerCount: 2
Fore
SplineSet
500 695 m 0
 306 695 195 457 195 305 c 0
 195 133 256 55 360 55 c 0
 554 55 665 293 665 445 c 0
 665 617 604 695 500 695 c 0
360 -15 m 0
 147 -15 40 97 40 300 c 0
 40 533 227 765 500 765 c 0
 713 765 820 653 820 450 c 0
 820 217 633 -15 360 -15 c 0
EndSplineSet
EndChar

StartChar: P
Encoding: 80 80 27
Width: 717
Flags: HMW
LayerCount: 2
Fore
SplineSet
326 395 m 6
 392 395 l 2
 488 395 572 446 572 575 c 0
 572 624 558 675 482 675 c 2
 390 675 l 2
 344.169150426 675 341.151498708 675.710150193 333.106666667 638 c 2
 291.293333334 442 l 2
 282.621993702 401.353095478 274.019921692 395 326 395 c 6
254.173333334 268 m 6
 222.6 120 l 2
 215.433020996 86.4047859167 203.024555997 75 248 75 c 2
 290 75 l 2
 316.621095841 75 325 80.5774467845 325 52 c 2
 325 32 l 2
 325 -2.70922673475 321.757051739 0 288 0 c 2
 -18 0 l 2
 -42.9464746924 0 -45 -1.78076363474 -45 24 c 2
 -45 44 l 2
 -45 68.0442338732 -49.7635370147 75 -24 75 c 2
 30 75 l 2
 78.6820502104 75 74.7117516193 83.0238357153 83.0266666667 122 c 2
 194.813333333 646 l 2
 201.881113752 679.13022071 196.206471868 675 158 675 c 2
 118 675 l 2
 92.8679321423 675 95 677.580274293 95 702 c 2
 95 728 l 2
 95 756.518420063 105.844579611 750 132 750 c 2
 482 750 l 2
 673 750 722 665 722 575 c 0
 722 395 573 320 392 320 c 2
 310 320 l 2
 257.589156664 320 262.956406498 309.170655458 254.173333334 268 c 6
EndSplineSet
EndChar

StartChar: Q
Encoding: 81 81 28
Width: 860
Flags: HMW
LayerCount: 2
Fore
SplineSet
669 -107.864257812 m 0
 669 -202.864257812 574 -249.864257812 495 -249.864257812 c 0
 305.463867188 -249.864257812 325.384765625 -83 238 -83 c 0
 207 -83 203 -93 203 -100 c 0
 203 -125 236 -126 236 -172 c 0
 236 -219 196 -250 159 -250 c 0
 112 -250 75 -212 75 -164 c 0
 75 -79 175 -27 254 -27 c 0
 433.536132812 -27 438.615234375 -193.864257812 506 -193.864257812 c 0
 538 -193.864257812 541 -181.864257812 541 -174.864257812 c 0
 541 -146.864257812 508 -150.864257812 508 -104.864257812 c 0
 508 -57.8642578125 551 -26.8642578125 588 -26.8642578125 c 0
 635 -26.8642578125 669 -63.8642578125 669 -107.864257812 c 0
500 695 m 0
 306 695 195 457 195 305 c 0
 195 133 256 55 360 55 c 0
 554 55 665 293 665 445 c 0
 665 617 604 695 500 695 c 0
360 -15 m 0
 147 -15 40 97 40 300 c 0
 40 533 227 765 500 765 c 0
 713 765 820 653 820 450 c 0
 820 217 633 -15 360 -15 c 0
EndSplineSet
EndChar

StartChar: R
Encoding: 82 82 29
Width: 831
Flags: HMW
LayerCount: 2
Fore
SplineSet
773.632336784 74.0000213345 m 0
 745.673881228 18.628950013 697.683264338 -10 624 -10 c 0
 540 -10 499 32 499 87 c 0
 499 137 517 198 517 248 c 0
 517 303 517 335 434 335 c 2
 314 335 l 2
 277.64270299 335 269.371791882 339.242774447 262.706666667 308 c 2
 221.746666667 116 l 2
 216.008271641 89.101273318 202.723570369 75 240 75 c 2
 270 75 l 2
 289.470575613 75 305 81.8737881142 305 60 c 2
 305 28 l 2
 305 -2.65436559229 301.778166145 0 272 0 c 2
 -12 0 l 2
 -43.2250369066 0 -45 -1.51990483127 -45 30 c 2
 -45 58 l 2
 -45 80.7222315006 -34.7442951595 75 -14 75 c 2
 42 75 l 2
 79.5392321548 75 75.0393591144 84.5594958487 81.32 114 c 2
 193.106666667 638 l 2
 199.571352865 668.303216555 207.925481119 675 168 675 c 2
 134 675 l 2
 104.066735958 675 105 676.091147341 105 706 c 2
 105 734 l 2
 105 759.050321419 131.805275372 750 154 750 c 2
 514 750 l 2
 685 750 754 690 754 580 c 0
 754 488.974093336 699.795898438 415.393554688 609 391.38671875 c 4
 557.153320312 377.677734375 545.421875 374.66796875 593.896484375 354 c 4
 645.770507812 331.8828125 659.99999995 287.513211563 660 256 c 0
 660 200 639 156 639 119 c 0
 639 97 648 84 671 84 c 0
 685.60421073 84 698.27388204 94.6399668096 707.999998882 109.529471789 c 0
 722.537404554 131.784476296 721.176079464 130.123072455 748 119.313432836 c 2
 762 113.671641791 l 2
 788.07379984 103.164289617 786.151169353 98.7932782315 773.632336784 74.0000213345 c 0
328 415 m 2
 444 415 l 2
 520 415 614 471 614 580 c 0
 614 639 590 675 514 675 c 2
 382 675 l 2
 339.957276493 675 340.461604732 672.476272183 333.106666667 638 c 2
 293.426666666 452 l 2
 285.673446332 415.656779681 283.677454394 415 328 415 c 2
EndSplineSet
Substitution2: "'ss01' Style Set 1 lookup 2-1" uniFFFD
EndChar

StartChar: S
Encoding: 83 83 30
Width: 659
Flags: HMW
LayerCount: 2
Fore
SplineSet
227 570 m 0
 227 409 617 485 617 225 c 0
 617 75 498 -20 297 -20 c 0
 216.487827347 -20 158.367069471 -1.79389639582 118.999998294 26.3855577902 c 0
 93.3518073255 44.7448616633 94.9018473935 58.5114421372 73.2857142857 31 c 2
 57.5714285714 11 l 2
 45.9166070989 -3.83340914683 40.5839132409 -5 13 -5 c 2
 -9 -5 l 2
 -38.8768711887 -5 -34.2215310498 -1.88612419936 -28.5 21 c 2
 23 227 l 2
 27.9813286215 246.925314486 24.6866882183 255 51 255 c 2
 85 255 l 2
 115.683523453 255 99.6374753276 232.00114374 98.0232986374 211 c 0
 88.0702656642 81.5066939762 192.053904403 54 297 54 c 0
 452 54 487 131 487 190 c 0
 487 361 100 278 100 528 c 0
 100 658 213 770 387 770 c 0
 447.139081964 770 500.443868426 754.053310496 542.999995032 725.095704755 c 0
 575.547867302 702.948283735 573.539034752 690.597672075 599.867346939 725 c 0
 610.914208648 739.434565966 612.132697605 750 639 750 c 2
 667 750 l 2
 687.82897017 750 694.248296443 751.169858239 690.816326531 735 c 6
 647.518367347 531 l 2
 642.614196096 507.893808529 643.917298672 505 615 505 c 2
 577 505 l 2
 553.182147738 505 566.834008144 529.678313774 567.432780769 546.999993076 c 0
 570.590298063 638.342682556 510.005022257 694 393 694 c 0
 314 694 227 652 227 570 c 0
EndSplineSet
EndChar

StartChar: T
Encoding: 84 84 31
Width: 754
Flags: HMW
LayerCount: 2
Fore
SplineSet
501.093333334 652 m 2
 387.6 120 l 2
 380.943423516 88.7972977325 367.097218537 75 410 75 c 2
 468 75 l 2
 488.218277645 75 496 79.8175181876 496 58 c 2
 496 24 l 2
 496 -3.02542807278 492.154750953 0 466 0 c 2
 140 0 l 2
 115.593189969 0 111 -3.47268719376 111 22 c 2
 111 48 l 2
 111 74.908869995 111.000230599 75 138 75 c 2
 200 75 l 2
 241.806724762 75 239.169120834 80.4802539089 246.32 114 c 2
 359.386666667 644 l 2
 367.87599041 683.793705047 363.252628735 680 317 680 c 0
 193.400892614 680 160.962465436 640.931137054 126.426305066 518 c 0
 121.453203745 500.298292761 124.36199628 475 98 475 c 2
 66 475 l 6
 37.9658203125 475 51.7202879755 504.807728924 56.4981818182 526 c 2
 100.236363636 720 l 2
 107.828204058 753.673485741 115.395647661 750 156 750 c 2
 760 750 l 2
 802.931848043 750 810.188605315 755.107288463 801.552727273 718 c 2
 756.403636364 524 l 2
 750.898053591 500.343199023 755.677384657 475 724 475 c 2
 702 475 l 2
 661.887298331 475 680.360041815 499.709153141 685.339879425 526 c 0
 707.431714708 642.632931365 697.877220008 680 577 680 c 2
 542 680 l 2
 508.278040474 680 507.005734551 679.714380706 501.093333334 652 c 2
EndSplineSet
EndChar

StartChar: U
Encoding: 85 85 32
Width: 842
Flags: HMW
LayerCount: 2
Fore
SplineSet
326.25 651 m 2
 241 310 l 2
 230.213867188 267.155273438 227 236 227 200 c 0
 227 115 261.13671875 63 356 63 c 0
 510 63 579 128 621 300 c 2
 705.333333334 645 l 2
 712.473293157 674.208926549 714.595890734 675 678 675 c 2
 636 675 l 2
 612.081004449 675 612 675.000204977 612 699 c 2
 612 727 l 2
 612 756.47615903 622.5352846 750 650 750 c 2
 864 750 l 2
 885.095556503 750 897 756.309931501 897 733 c 2
 897 703 l 2
 897 670.640626881 891.199899882 675 860 675 c 2
 812 675 l 2
 786.333345703 675 790.051986049 664.303579288 785.333333334 645 c 2
 701 300 l 2
 651 97 559 -20 341 -20 c 0
 154.212890625 -20 85 67 85 182 c 0
 85 219 90.8671875 258.262695312 101 300 c 2
 186.8 651 l 2
 193.728175458 679.342535963 187.133455562 675 154 675 c 2
 120 675 l 2
 92.0945051903 675 92 675.00023914 92 703 c 2
 92 727 l 2
 92 751.672287905 93.9713521452 750 118 750 c 2
 412 750 l 2
 435.957618374 750 452 753.814453125 452 727 c 6
 452 701 l 2
 452 676.189332935 453.020367025 675 428 675 c 2
 364 675 l 2
 333.906268932 675 332.240331293 674.961325172 326.25 651 c 2
EndSplineSet
EndChar

StartChar: V
Encoding: 86 86 33
Width: 835
Flags: HMW
LayerCount: 2
Fore
SplineSet
420.059901384 173 m 0
 436.834304391 200.818474585 445 217 462.45751634 245 c 24
 560 403 714.891503268 649 714.891503268 649 c 2
 728.949746112 671.49907066 737.360345084 675 698 675 c 2
 654 675 l 2
 627.074600388 675 625 673.18810112 625 701 c 2
 625 723 l 2
 625 757.725702324 637.665025444 750 670 750 c 2
 886 750 l 2
 912.328046836 750 915 752.257783734 915 725 c 2
 915 699 l 2
 915 671.555260345 910.502720357 675 884 675 c 2
 852 675 l 2
 816.41425939 675 816.704660446 665.588126793 803.705882353 645 c 2
 407.203921569 17 l 2
 394.469097056 -3.17006366852 386.764643785 -15 360 -15 c 6
 322 -15 l 2
 292.548975142 -15 297.547399662 -2.06041890796 293.176470588 21 c 2
 177.176470589 633 l 2
 171.347614075 663.752242986 176.727833753 675 138 675 c 2
 90 675 l 2
 67.0334915211 675 65 673.251406685 65 697 c 2
 65 729 l 2
 65 757.259745137 78.2287135479 750 104 750 c 2
 380 750 l 2
 402.357791516 750 405 752.183384066 405 729 c 2
 405 701 l 2
 405 675.628610702 405.519695901 675 380 675 c 2
 334 675 l 2
 298.507634226 675 306.710316015 667.142003213 311.366906474 639 c 2
 376.230215827 247 l 2
 380.323899639 222.259910877 383.157691804 200.76411586 386.985029396 171 c 0
 392 132 408 153 420.059901384 173 c 0
EndSplineSet
EndChar

StartChar: W
Encoding: 87 87 34
Width: 1199
Flags: HMW
LayerCount: 2
Fore
SplineSet
374.503864883 170 m 0
 390.447398638 198.122860561 400.748914494 218.848609103 414.987730061 242 c 2
 611.182515337 561 l 2
 624.630644133 582.865785474 632.930660051 591.543004196 629.144736842 625 c 2
 624.844736842 663 l 2
 623.005712646 679.251841729 613.744763454 675 597 675 c 2
 553 675 l 2
 523.360288725 675 526 678.217533944 526 707 c 2
 526 731 l 2
 526 757.017355248 539.344400254 750 563 750 c 2
 801 750 l 2
 822.063636266 750 826 752.980828752 826 731 c 2
 826 697 l 2
 826 674.553436494 825.459786247 675 803 675 c 2
 769 675 l 2
 736.878366239 675 743.859685471 667.635554297 747.048175183 641 c 2
 790.502189781 278 l 2
 793.624567292 251.916724452 796.590412766 225.64239182 799.358881691 199 c 0
 804.322159287 151.235842269 806.573197591 167.971673086 821.162411755 198 c 0
 834.65804859 225.777465617 848.825992278 251.882876764 863.568421051 278 c 6
 1075.24605263 653 l 2
 1087.99072298 675.577970779 1088.73000784 675 1054 675 c 2
 1026 675 l 2
 1002.45967749 675 1005 678.203887491 1005 701 c 2
 1005 733 l 2
 1005 757.190451377 1020.32027381 750 1042 750 c 2
 1248 750 l 2
 1268.69480343 750 1279 755.787284238 1279 733 c 2
 1279 705 l 2
 1279 674.5776733 1278.46254946 675 1248 675 c 2
 1192 675 l 2
 1163.41947792 675 1163.97878956 662.338541333 1154.28289474 645 c 2
 803.657894737 18 l 2
 793.894114666 0.540063873615 794.773358485 -10 766 -10 c 2
 730 -10 l 2
 697.077855527 -10 700.400132839 -4.69884834319 697.152631579 24 c 2
 656.755263158 381 l 2
 653.846315734 406.706977234 651.134133677 432.766262047 648.55931451 459 c 0
 643.977121941 505.686012224 639.362567616 481.213340738 625.992980529 456 c 0
 614.158550755 433.681770692 602.055351851 411.966449406 589.183544304 391 c 2
 360.189873418 18 l 2
 348.404746056 -1.19639302284 348.928323637 -10 316 -10 c 2
 286 -10 l 2
 253.84944618 -10 258.721707171 -0.747594763955 255.026315789 26 c 2
 168.125 655 l 2
 165.313532024 675.34967297 164.243161835 675 141 675 c 2
 93 675 l 2
 67.6637997885 675 65 672.760125742 65 699 c 2
 65 729 l 2
 65 755.026980246 72.6109907583 750 97 750 c 2
 375 750 l 2
 399.270912249 750 395 743.816141603 395 721 c 2
 395 709 l 2
 395 674.07912381 393.913467517 675 359 675 c 2
 321 675 l 2
 297.03548195 675 294.320960477 677.212724369 297.165467626 655 c 2
 350.05323741 242 l 2
 353.036296146 218.705327852 355.538634961 198.488749873 358.358613645 171 c 0
 360 155 366 155 374.503864883 170 c 0
EndSplineSet
EndChar

StartChar: X
Encoding: 88 88 35
Width: 890
Flags: HMW
LayerCount: 2
Fore
SplineSet
164 750 m 2
 431 750 l 2
 461.671011974 750 470 755.822322232 470 723 c 2
 470 692 l 2
 470 672.964028729 467.436864399 675 449 675 c 2
 403 675 l 2
 363.94456697 675 377.973393941 667.274672398 390.568 646 c 2
 485.288 486 l 2
 502.986118397 456.104529735 503.271247436 460.681827963 527 482.836734694 c 2
 704 648.096938776 l 2
 725.184452783 667.876300303 745.349981839 675 695 675 c 2
 673 675 l 2
 645.25004664 675 640 671.035481474 640 700 c 2
 640 729 l 2
 640 756.708923051 651.652222799 750 677 750 c 2
 905 750 l 2
 932.358382252 750 940 755.293622462 940 726 c 2
 940 711 l 2
 940 675.121506673 939.999692534 675 904 675 c 2
 869 675 l 2
 826.860220689 675 820.88019185 659.639975171 800 640.243654823 c 2
 564 421.015228426 l 2
 538.900064846 397.699045009 538.246819137 396.542535241 556.328 366 c 2
 706.696 112 l 2
 722.345898001 85.5643614855 721.685078896 75 766 75 c 2
 799 75 l 2
 825.434652664 75 825 74.4613827193 825 48 c 2
 825 29 l 2
 825 -5.43986479836 817.473249172 0 785 0 c 2
 522 0 l 2
 487.696315938 0 475 -7.97595079191 475 29 c 2
 475 36 l 2
 475 73.7801444613 473.966854203 75 512 75 c 2
 546 75 l 2
 580.170108621 75 563.281874318 91.7735632375 551.442666667 112 c 2
 447.253333333 290 l 2
 423.994279568 329.736424428 424.154049757 325.934334689 392 295.570765662 c 2
 198 112.373549884 l 2
 169.978588043 85.9124949733 153.904296875 75 189 75 c 6
 204 75 l 2
 235.419198796 75 235 74.4627932686 235 43 c 2
 235 28 l 2
 235 -5.7625992476 226.768025726 0 195 0 c 2
 -28 0 l 2
 -65.4001554408 0 -65 0.536027595198 -65 38 c 2
 -65 44 l 2
 -65 74.8953692535 -64.999735238 75 -34 75 c 2
 15 75 l 2
 65.1524090997 75 59.1221660656 83.7060210691 99 121.585421412 c 6
 362 371.40546697 l 2
 387.599626591 395.722196557 383.984228176 398.090726351 365.892 429 c 2
 236.533333333 650 l 2
 223.779267288 671.789406683 221.676636236 675 186 675 c 2
 144 675 l 2
 116.148353289 675 120 680.163129244 120 707 c 2
 120 729 l 2
 120 758.51017521 137.509209575 750 164 750 c 2
EndSplineSet
EndChar

StartChar: Y
Encoding: 89 89 36
Width: 820
Flags: HMW
LayerCount: 2
Fore
SplineSet
108 750 m 2
 356 750 l 2
 387.112678287 750 405 759.397957902 405 725 c 2
 405 708 l 2
 405 674.076541506 403.912655053 675 370 675 c 2
 350 675 l 2
 309.154092589 675 323.291541467 665.718088624 334.521634616 641 c 2
 421.298076923 450 l 2
 455.563976376 374.57876099 457.319661892 394.561599906 504.169014084 450 c 2
 668.112676056 644 l 2
 683.621643367 662.352277985 709.00029389 675 664 675 c 2
 628 675 l 2
 599.571289062 675 600 675.538085938 600 704 c 2
 600 718 l 2
 600 761.478515625 621.4140625 750 661 750 c 2
 860 750 l 2
 896.626953125 750 900 752.88671875 900 715 c 2
 900 702 l 2
 900 666.826171875 886.237304688 675 854 675 c 2
 827 675 l 2
 788.698622422 675 785.818952732 668.363058611 769.241299304 649 c 2
 533.800464037 374 l 2
 509.974410963 346.170653455 495.452074246 330.102824823 485.371428572 286 c 2
 447.428571429 120 l 2
 438.732530204 81.9548196402 429.46718428 75 479 75 c 2
 521 75 l 2
 550.060318795 75 554 78.1820209125 554 48 c 2
 554 24 l 2
 554 -8.41127246392 538.539839088 0 509 0 c 2
 197 0 l 2
 171.663799788 0 169 -2.23987425751 169 24 c 2
 169 54 l 2
 169 79.3219494357 175.173980705 75 199 75 c 2
 249 75 l 2
 294.698600449 75 297.125616104 74.9245704555 305.6 112 c 2
 331.657142857 226 l 2
 343.898219438 279.554710045 342.639609108 298.376051451 322.1 342 c 2
 181.791666667 640 l 2
 169.32809417 666.471304418 171.008036757 675 130 675 c 2
 99 675 l 2
 68.9439774282 675 65 671.796401244 65 703 c 2
 65 719 l 2
 65 755.905626402 73.2132792419 750 108 750 c 2
EndSplineSet
EndChar

StartChar: Z
Encoding: 90 90 37
Width: 745
Flags: HMW
LayerCount: 2
Fore
SplineSet
370 675 m 2
 248.331803447 675 193.489670405 640.430972432 158.15159552 539 c 0
 151.070660548 518.675573097 155.083976763 495 124 495 c 2
 102 495 l 2
 62.9007719971 495 79.4423523459 513.87999747 85.8235294118 541 c 2
 126.294117647 713 l 2
 135.76472567 753.250084099 142.949494406 750 192 750 c 2
 706 750 l 2
 739.530650714 750 750 756.988165362 750 721 c 2
 750 697 l 2
 750 664.87973849 733.938597295 659.703425996 718 644.523809524 c 2
 174 126.428571429 l 2
 143.010886792 96.9151302782 91.3080322006 75 176 75 c 2
 390 75 l 2
 514.727991422 75 565.686501565 110.641434776 604 235.502543088 c 0
 610.264000892 255.916499677 605.913109301 275 636 275 c 2
 658 275 l 2
 691.154056672 275 683.707870193 268.539350965 678.6 243 c 2
 639 45 l 2
 631.211144426 6.05572213134 634.28600551 0 586 0 c 2
 -20 0 l 2
 -50.4223266999 0 -50 0.537450542002 -50 31 c 2
 -50 63 l 2
 -50 84.681119147 -29.4533833341 94.5682063484 -18 105.476190476 c 2
 542 638.80952381 l 2
 575.386147453 670.605854717 591.16313616 675 520 675 c 6
 370 675 l 2
EndSplineSet
EndChar

StartChar: a
Encoding: 97 97 38
Width: 666
VWidth: 1155
Flags: HMW
LayerCount: 2
Fore
SplineSet
627.60589997 124.000003112 m 0
 594.703286819 45.8079698592 529.97505253 -15 443 -15 c 0
 396 -15 362 13 362 63 c 0
 362 67.7754264754 359.712851577 69.1381615209 354.000033192 62.7254463702 c 0
 312.104532178 15.6971853601 256.282664972 -14.999999942 187 -15 c 0
 98 -15 15 40 15 180 c 0
 15 410 178 534 297 534 c 0
 362.80366212 534 401.398033942 509.748241256 422.916035836 468.000004014 c 0
 436.393534242 441.8515817 435.613174111 443.603804179 441.620620633 470 c 6
 449.813773777 506 l 2
 453.897183084 523.942144184 463.163317386 520 484 520 c 2
 544 520 l 2
 573.508225628 520 586.673785562 526.678891904 579.98783455 500 c 2
 482 109 l 2
 480.639648438 103.307617188 480 96 480 91 c 0
 480 80 485 72 498 72 c 0
 525.233314196 72 548.617216271 96.3796101043 571.235007688 139.999994539 c 0
 579.849198504 156.613213224 580.35161627 177.876018651 604 172.075471698 c 2
 626 166.679245283 l 2
 649.203419535 160.987840491 635.205913962 142.061199165 627.60589997 124.000003112 c 0
403 320 m 0
 403 404 386 463 325 463 c 0
 241 463 155 354 155 180 c 0
 155 106 180 59 232 59 c 0
 323 59 403 206 403 320 c 0
EndSplineSet
EndChar

StartChar: b
Encoding: 98 98 39
Width: 604
VWidth: 1155
Flags: HMW
LayerCount: 2
Fore
SplineSet
23.0075757576 155 m 2
 145.409090909 690 l 2
 150.617126735 712.763600299 154.196314066 715 125 715 c 2
 76 715 l 2
 53.4788099393 715 56 718.204374205 56 740 c 2
 56 758 l 2
 56 777.993929904 54.3022496718 780 75 780 c 2
 270 780 l 2
 298.413807917 780 295.637455368 778.421574391 290.4875 756 c 2
 225.0265625 471 l 2
 217.760669886 439.366181817 214.851261839 432.301414371 239.999996873 460.932250131 c 0
 281.602114656 508.294608513 331.297030044 534 382 534 c 0
 481 534 559 470 559 330 c 0
 559 140 426 -15 217 -15 c 0
 120.12711524 -15 61.336998931 32.9842882485 27.9999996947 93.0580660908 c 0
 15.5448598003 115.502416937 16.5632424525 126.832715355 23.0075757576 155 c 2
150.556408338 115.000002196 m 0
 156.008778373 74.3699938882 176.275673745 47 219 47 c 0
 323 47 419 196 419 330 c 0
 419 414 403 468 359 468 c 0
 296.728494759 468 223.687625283 395.691411564 188.453815658 301.000003891 c 0
 183.369029554 287.334562684 179.641945281 273.407108706 176.103125 258 c 2
 153.8234375 161 l 2
 150.556348402 146.775938621 148.23800615 132.276287471 150.556408338 115.000002196 c 0
EndSplineSet
EndChar

StartChar: c
Encoding: 99 99 40
Width: 570
VWidth: 1155
Flags: HMW
LayerCount: 2
Fore
SplineSet
525 392 m 0
 525 324 476 295 432 295 c 0
 394 295 357 321 357 368 c 0
 357 416 409 429 409 446 c 0
 409 458 396 473 362 473 c 0
 251 473 157 334 157 170 c 0
 157 96 183 54 232 54 c 0
 306.007119319 54 365.703458151 100.907558265 403.999996153 153.60635681 c 0
 414.467477186 168.010365712 413.884015074 173 440 173 c 2
 460 173 l 6
 477.29642675 173 486.43186952 172.887104746 476 154.920814641 c 0
 425.580695115 68.0861531534 341.214557847 -15 200 -15 c 0
 101 -15 15 30 15 170 c 0
 15 400 201 535 352 535 c 0
 464 535 525 464 525 392 c 0
EndSplineSet
EndChar

StartChar: d
Encoding: 100 100 41
Width: 668
VWidth: 1155
Flags: HMW
LayerCount: 2
Fore
SplineSet
627.757048461 128.000007116 m 0
 589.012008598 38.7586959328 523.911694877 -15 443 -15 c 0
 399.231720069 -15 359.882289456 9.15120302646 362.475422702 52.9999942342 c 4
 363.240111988 65.930568028 361.95512087 71.1840906577 350.000033897 58.3309471083 c 0
 308.574894535 13.7939843894 254.100566795 -14.9999999439 187 -15 c 0
 98 -15 15 40 15 180 c 0
 15 410 178 534 297 534 c 0
 354.55577303 534 391.295661569 515.446711649 414 482.86035787 c 0
 436.051057677 451.211623914 431.437361379 426.076669174 444.009032623 482 c 2
 489.868621029 686 l 2
 495.82528628 712.497396806 499.847451672 715 466 715 c 2
 430 715 l 2
 407.553436494 715 408 715.540213753 408 738 c 2
 408 758 l 2
 408 782.984420965 411.849220285 780 436 780 c 2
 612 780 l 2
 642.56397282 780 643.257099448 781.071513847 637.2414307 756 c 2
 482 109 l 2
 480.68359375 103.349609375 480 96 480 91 c 0
 480 80 485 72 498 72 c 0
 525.93635013 72 549.055171503 97.8942170667 570.160300996 137.999997545 c 0
 579.555584013 155.853721604 581.76086811 177.530353105 605 171.830188679 c 2
 628 166.188679245 l 2
 648.567584269 161.143800085 634.305474633 143.082973604 627.757048461 128.000007116 c 0
403 320 m 0
 403 404 386 463 325 463 c 0
 241 463 155 354 155 180 c 0
 155 106 180 59 232 59 c 0
 323 59 403 206 403 320 c 0
EndSplineSet
EndChar

StartChar: e
Encoding: 101 101 42
Width: 560
VWidth: 1155
Flags: HMW
LayerCount: 2
Fore
SplineSet
157 170 m 0
 157 96 183 54 232 54 c 0
 302.084275885 54 358.621693183 96.0665608725 397.999994035 145.281189959 c 0
 409.360673526 159.479660062 409.999016676 173 436 173 c 2
 458 173 l 6
 481.546742731 173 485.613590286 171.062112835 474 151.402696982 c 0
 424.739547401 68.0148988126 339.976679435 -15 201 -15 c 0
 80 -15 15 50 15 170 c 0
 15 390 181 535 372 535 c 0
 474 535 535 494 535 422 c 0
 535 270.672899143 317.309673834 225.363814276 182.000002768 214.76874985 c 0
 161.58538235 213.170237217 159.059711006 214.784009611 157.754406847 194.000005613 c 0
 157.256344932 186.069500859 157 178.064979785 157 170 c 0
399 422 m 0
 399 461 381 473 352 473 c 0
 289.748765483 473 219.18056652 404.99658482 182.385409997 308.000004744 c 0
 173.663784454 285.008721913 166.266092946 267.121677767 193.999997719 269.901572756 c 4
 287.145852734 279.238004021 399 313.191546603 399 422 c 0
EndSplineSet
EndChar

StartChar: f
Encoding: 102 102 43
Width: 395
VWidth: 1155
Flags: HMW
LayerCount: 2
Fore
SplineSet
140.581717452 550 m 0
 144.959761944 571.79964223 149.587675862 592.288680971 156 611.926121952 c 0
 192.019493133 722.234124997 268.738779426 800 412 800 c 0
 553 800 600 721 600 674 c 0
 600 606 551 577 507 577 c 0
 469 577 432 598 432 645 c 0
 432 701 469 706 469 718 c 0
 469 730 446 740 414 740 c 0
 334 740 301.459077343 677.733476836 275 550 c 0
 270.359760002 527.598841389 266.186523438 520 296 520 c 2
 366 520 l 2
 385.440411251 520 395 525.399131039 395 504 c 2
 395 476 l 2
 395 452.89725917 392.428305412 455 370 455 c 2
 282 455 l 2
 250.79615012 455 254.003207392 448.636173617 248.9 424 c 2
 136.385742188 -115 l 2
 131.086914062 -140.58203125 129.137315932 -150 98 -150 c 2
 29 -150 l 6
 -1.9736328125 -150 2.68819311364 -136.61465222 7.2299168975 -114 c 2
 116.08033241 428 l 2
 121.282344957 453.902434891 123.422775902 455 92 455 c 2
 64 455 l 2
 45.064128522 455 45 455.000162273 45 474 c 2
 45 504 l 2
 45 524.767559832 52.9566518076 520 72 520 c 2
 108 520 l 2
 138.640150349 520 135.695716073 525.671082787 140.581717452 550 c 0
EndSplineSet
EndChar

StartChar: g
Encoding: 103 103 44
Width: 579
VWidth: 1155
Flags: HMW
LayerCount: 2
Fore
SplineSet
55 295 m 0
 55 445 198 535 329 535 c 0
 338.626765781 535 347.967707722 534.623916 356.999994013 533.878271373 c 0
 372.250461565 532.619295647 371.610840188 532.35861077 375.107001088 545.999997991 c 0
 393.951131776 619.526386203 446.563296922 697 525 697 c 0
 586 697 619 663 619 611 c 0
 619 567 586 536 546 536 c 0
 508 536 480 560 480 595 c 0
 480 602.518851905 482.45522861 610.386673772 484.799129508 616.999999593 c 0
 491.187039039 635.023512055 487.331118548 637.449657395 474.673757093 628.00000054 c 0
 457.648066213 615.289062554 438.134816445 579.769867828 429.092118245 538.000001945 c 0
 425.041561173 519.289742911 426.916344548 519.132079081 441.012678883 512.000004858 c 0
 486.444495217 489.013668237 513 449.282314881 513 395 c 0
 513 245 380 155 249 155 c 0
 231.572135699 155 214.834511858 156.232572251 199.000004263 158.659012065 c 0
 177.381928311 161.971711236 168.726055744 164.399026794 152.000000869 154.835188778 c 0
 133.356633587 144.175045302 120 130.64404905 120 116 c 0
 120 89 152 89 207 89 c 0
 232 89 270 90 298 90 c 0
 423 90 475 44 475 -42 c 0
 475 -183 305 -260 135 -260 c 0
 32 -260 -70 -240 -70 -145 c 0
 -70 -87.2952539644 -18.586584475 -38.0040188537 31.9999986387 -12.4979768433 c 0
 68.9681970175 6.14159837321 65.8260350588 2.4984223817 37.9711498182 28 c 4
 26.6139397684 38.3977011972 22 54.5394525581 22 74 c 0
 22 116.925920671 48.114436868 148.10034475 88.9999974072 168.323976701 c 0
 123.750788877 185.513106735 125.618676499 176.947100686 97.6828058111 200.999993145 c 0
 70.7418945122 224.196221731 55 255.804883272 55 295 c 0
190 285 m 0
 190 231 210 205 249 205 c 0
 338 205 378 301 378 405 c 0
 378 449 368 485 329 485 c 0
 240 485 190 389 190 285 c 0
101.13791118 -23.9999987871 m 0
 74.4263576503 -52.7204070984 65 -86.710830157 65 -112 c 0
 65 -178 100 -195 166 -195 c 0
 250 -195 384 -152 384 -67 c 0
 384 -23 360 -9 295 -9 c 0
 274 -9 213 -9 191 -9 c 0
 176.272809277 -9 161.840160728 -8.70545782559 148.000002794 -7.89729374049 c 0
 120.513430174 -6.29227876009 114.842152661 -9.2651234636 101.13791118 -23.9999987871 c 0
EndSplineSet
EndChar

StartChar: h
Encoding: 104 104 45
Width: 681
VWidth: 1155
Flags: HMW
LayerCount: 2
Fore
SplineSet
549.117117117 297 m 6
 497 119 l 2
 495.599609375 113.094726562 495 106 495 101 c 0
 495 90 500 82 513 82 c 0
 539.85101723 82 562.251558372 100.358213864 582.691202803 134.99999211 c 0
 595.93870811 157.452297614 593.88966337 178.234610872 627 170.113207547 c 0
 657.93723298 162.524829646 656.465831889 159.643569071 645.000001383 132.125560914 c 0
 603.713069435 33.0368704312 521.715425198 -15 448 -15 c 0
 401 -15 363 8 363 58 c 0
 363 77 365.729436054 94.8649805582 370 110 c 2
 426.997212358 312 l 2
 432.16074218 330.299719949 438.654140624 351.988963708 442.754570767 368.999991223 c 0
 457.074723943 428.408519398 452.967306667 461 408 461 c 0
 328.22250104 461 225.388187661 327.270476367 180.350465945 204.000003281 c 0
 171.489348565 179.746686509 165.921673869 155.660586765 159.769230769 129 c 2
 141.769230769 51 l 2
 133.547486042 15.3724395172 140.009758965 0 93 0 c 2
 24 0 l 2
 -14.1123476939 0 7.16530519341 31.0496558382 13.1538461538 57 c 2
 153 663 l 2
 160.315944465 694.702426015 172.054953921 705 129 705 c 2
 93 705 l 2
 67.8679321423 705 70 707.580274293 70 732 c 2
 70 750 l 2
 70 779.35917577 69.4790749418 780 99 780 c 2
 255 780 l 2
 297.313247762 780 311.904364906 788.252247925 303.076923077 750 c 2
 237.307692308 465 l 2
 214.747265093 367.238148736 226.140487237 406.490099807 272.99999509 453.233549403 c 0
 323.81709558 503.924789754 381.51874867 534 441 534 c 0
 512.431179517 534 569.6907778 499.85937248 571.418518517 414 c 0
 572.14345683 377.974485271 558.602062475 329.394736453 549.117117117 297 c 6
EndSplineSet
EndChar

StartChar: i
Encoding: 105 105 46
Width: 353
VWidth: 1155
Flags: HMW
LayerCount: 2
Fore
SplineSet
258.670822943 493 m 2
 171 119 l 2
 169.599609375 113.094726562 169 106 169 101 c 0
 169 90 174 82 187 82 c 0
 215.848347091 82 238.275390625 103.19140625 259.426757812 143 c 0
 266.708007812 156.705078125 271.16796875 177.67578125 291 172.811523438 c 6
 310 167.41509434 l 2
 335.013368317 161.279739847 324.386514505 149.406713746 316.000001406 129.754134228 c 0
 274.399914982 32.270353206 193.124927042 -15 120 -15 c 0
 73 -15 35 8 35 58 c 0
 35 77 38.4482421875 94.6845703125 42 110 c 2
 111.799823742 411 l 2
 118.462231478 439.730512785 125.518538925 445 88 445 c 2
 42 445 l 2
 20.2408190082 445 25 452.721008657 25 473 c 2
 25 503 l 2
 25 523.018576134 36.103515625 520 55 520 c 2
 220 520 l 2
 257.387077786 520 264.098172275 516.152841303 258.670822943 493 c 2
138 680 m 0
 138 724 174 760 218 760 c 0
 262 760 298 724 298 680 c 0
 298 636 262 600 218 600 c 0
 174 600 138 636 138 680 c 0
EndSplineSet
EndChar

StartChar: j
Encoding: 106 106 47
Width: 366
VWidth: 1155
Flags: HMW
LayerCount: 2
Fore
SplineSet
201 680 m 0
 201 724 237 760 281 760 c 0
 325 760 361 724 361 680 c 0
 361 636 325 600 281 600 c 0
 237 600 201 636 201 680 c 0
-78 -193 m 0
 -78 -200 -63 -205 -41 -205 c 0
 40.2099671085 -205 67.3441061755 -72.7334476282 92.2508078097 44.9999969582 c 0
 101.634689593 89.357404945 111.114853253 130.418212975 120.834532374 174 c 2
 173.690647482 411 l 2
 181.305460956 445.143841062 192.8119084 455 147 455 c 2
 117 455 l 2
 93.782550697 455 98 461.196389382 98 483 c 2
 98 501 l 2
 98 527.741979189 113.99903784 520 138 520 c 2
 291 520 l 2
 342.905566834 520 323.116945777 498.840098369 314.615384615 462 c 6
 208 0 l 2
 178 -131 123 -265 -47 -265 c 0
 -168 -265 -215 -216 -215 -149 c 0
 -215 -81 -167 -55 -123 -55 c 0
 -85 -55 -47 -73 -47 -120 c 0
 -47 -176 -78 -176 -78 -193 c 0
EndSplineSet
EndChar

StartChar: k
Encoding: 107 107 48
Width: 642
VWidth: 1155
Flags: HMW
LayerCount: 2
Fore
SplineSet
597.000001894 140.951356118 m 0
 560.039650603 36.4840318389 486.159225733 -10 400 -10 c 0
 352.6953125 -10 316.005859375 13.5537109375 316.005859375 63.38671875 c 0
 316.005859375 68.5849609375 317.287109375 79.056640625 318 85 c 2
 327 160 l 2
 330.070642253 185.588402852 329.533547967 213.079294271 321.890344857 235.999998698 c 0
 314.256296937 258.89324822 310.200477122 265.122531033 289.00000122 256.416673788 c 0
 273.291757393 249.966171028 258.560383444 247 247 247 c 0
 235.848098964 247 225.880390557 248.948983702 216.999999786 252.436201136 c 0
 200.29542299 258.995877725 198.894933103 267.310435592 188.805515053 249.000002477 c 0
 182.310905302 237.213483488 177.03805557 223.050584437 172.751533519 206.923311917 c 2
 133.769230769 38 l 2
 129.401859747 19.0747255707 133.323035147 0 108 0 c 2
 24 0 l 2
 -8.64191664041 0 -4.21024843238 3.42225679301 7 52 c 6
 149.846153846 671 l 2
 155.514598756 695.563261276 168.641626898 715 136 715 c 2
 103 715 l 2
 77.4239488028 715 80 718.205658799 80 743 c 2
 80 759 l 2
 80 786.008879586 89.8505753454 780 115 780 c 2
 260 780 l 2
 309.484961688 780 304.297147658 776.954306517 295.307692308 738 c 2
 206 351 l 2
 199.74658043 323.901848533 203.290675091 322.239877036 223.999998934 331.085301362 c 0
 243.941080495 339.602591897 261.588251547 339 271 339 c 0
 277.826096151 339 285.223714789 338.37324442 292.999998532 337.114040293 c 0
 312.659617788 333.930582164 312.765770132 337.417686228 320.938513577 354 c 0
 326.895519185 366.086631229 332.584536002 380.326142397 338 397 c 0
 366.315429688 484.180664062 413 535 493 535 c 0
 554 535 607 496 607 424 c 0
 607 380 574 349 534 349 c 0
 496 349 466 378 466 413 c 0
 466 445 493 450 493 466 c 0
 493 473 488 480 473 480 c 0
 443 480 412.950195312 459.78125 390 375 c 0
 386.117227818 360.656294115 380.961443251 347.682982611 374.871683802 335.999998827 c 0
 362.68040691 312.61147397 358.923260528 315.771567976 380.864737825 300 c 0
 421.2354117 270.981496886 454.040339595 225.554137918 454.958848255 163 c 0
 455.165400414 148.932966345 452.880448924 135.542188503 450.512820513 124 c 2
 446 102 l 2
 445.49609375 99.7314453125 445.225585938 95.548828125 445.225585938 93.5361328125 c 0
 445.225585938 82.1416015625 451.619140625 77 465 77 c 0
 480.114747945 77 509.458564742 87.2765497262 536.163310062 150 c 0
 543.299132853 166.760445403 540.847121723 177.154955476 563 172.189655172 c 2
 581 168.155172414 l 2
 604.026377806 162.994087733 604.597577477 162.425675611 597.000001894 140.951356118 c 0
EndSplineSet
EndChar

StartChar: l
Encoding: 108 108 49
Width: 333
VWidth: 1155
Flags: HMW
LayerCount: 2
Fore
SplineSet
286.503782148 741 m 6
 151 119 l 2
 149.599609375 113.094726562 149 106 149 101 c 0
 149 90 154 82 167 82 c 0
 196.088965004 82 218.648856821 103.545941516 239.955341603 143.999991473 c 0
 249.275026291 161.695026287 248.041720583 177.706747782 273 171.58490566 c 2
 291 167.169811321 l 2
 315.775210539 161.092872887 303.20471558 146.223370054 295.000001429 127.437888581 c 0
 253.107722781 31.5214910074 172.543388028 -15 100 -15 c 0
 53 -15 15 8 15 58 c 0
 15 77 18.4482421875 94.6845703125 22 110 c 2
 142.175037896 665 l 2
 149.62379801 699.400337503 157.16429847 705 113 705 c 2
 87 705 l 2
 51.5934515893 705 52 705.53637424 52 741 c 2
 52 759 l 2
 52 788.730153128 70.3374294351 780 97 780 c 2
 241 780 l 2
 290.94953015 780 295.902763323 784.143934422 286.503782148 741 c 6
EndSplineSet
EndChar

StartChar: m
Encoding: 109 109 50
Width: 981
VWidth: 1155
Flags: HMW
LayerCount: 2
Fore
SplineSet
503.890909091 108 m 0
 488.406060606 38 l 2
 481.878351153 8.49117644548 486.014576417 0 448 0 c 2
 380 0 l 2
 335.179893049 0 340.872584852 3.46931326774 349.557575758 38 c 2
 418.472727273 312 l 2
 422.176864591 326.727292954 426.282760376 343.536786258 429.496420399 357.999990726 c 0
 444.244333286 424.373557964 445.669675668 461 398 461 c 0
 336.092492334 461 243.774038384 328.712383664 200.593901116 206.000003284 c 0
 196.122105285 193.291736343 192.177316196 180.686163475 188.84788862 168.340850688 c 1
 179.538461538 128 l 0
 158.769230769 38 l 2
 151.216154764 5.27000397624 153.63004937 0 112 0 c 2
 48 0 l 2
 9.370105331 0 23.331987373 14.4386119499 29.6923076923 42 c 2
 118.769230769 428 l 2
 124.282222327 451.889630082 128.872868829 455 98 455 c 2
 76 455 l 2
 53.4744326847 455 45 449.708561155 45 474 c 2
 45 490 l 2
 45 519.35917577 44.4790749418 520 74 520 c 2
 228 520 l 2
 263.538527892 520 271.148397856 524.976390708 264 494 c 2
 251.538461538 440 l 2
 238.901504385 385.239852337 250.867828071 415.336057157 271.999995966 440.619741843 c 0
 320.708624839 498.897416903 375.85431242 534 431 534 c 0
 495.07644885 534 542.961914062 495.826171875 542.799804688 425 c 4
 542.685546875 375.372070312 541.44921875 372.15625 575 421.330078125 c 4
 620.564453125 488.112304688 676.564269492 533.999999999 741 534 c 0
 819.740359561 534 881.260548319 492.515043068 870.160262266 386 c 0
 867.161393865 357.223750868 857.556118925 325.822436944 849.995495495 300 c 2
 797 119 l 2
 795.599609375 113.094726562 795 106 795 101 c 0
 795 90 800 82 813 82 c 0
 840.615892954 82 863.037017413 101.701782699 884.433212617 137.999991892 c 0
 903.177256775 169.798880874 904.043945312 176.725585938 918 173.301757812 c 2
 936 167.905660377 l 2
 960.763621823 161.831564459 954.467401481 155.383388241 946.000001359 134.555190596 c 0
 905.048394332 33.8220077074 822.315403398 -15 748 -15 c 0
 701 -15 663 8 663 58 c 0
 663 77 663.377301696 86.5289388354 670 110 c 6
 725.868554688 308 l 2
 731.11069838 326.578330099 737.647942255 348.334478631 742.021515052 365.999991085 c 0
 757.200562563 427.31042658 753.71856462 461 708 461 c 0
 644.406786522 461 563.966512379 321.410068779 525.600314712 196.000003265 c 0
 521.13175242 181.393325412 517.233949045 166.979005548 514 153 c 1
 503.890909091 108 l 0
EndSplineSet
EndChar

StartChar: n
Encoding: 110 110 51
Width: 701
VWidth: 1155
Flags: HMW
LayerCount: 2
Fore
SplineSet
90 455 m 6
 69 455 l 2
 46.1859921699 455 45 453.982875503 45 477 c 2
 45 501 l 2
 45 528.781172665 65.1971257498 520 90 520 c 2
 228 520 l 2
 270.283952943 520 270.173430589 520.751532551 262.153846154 486 c 2
 248.307692308 426 l 2
 236.555372276 375.073279861 246.386909563 400.188961355 266.999995364 424.800052229 c 0
 323.691162318 492.486738012 391.117378142 534 461 534 c 0
 539.493473239 534 600.874592292 492.774783099 590.262535288 387 c 0
 587.601312221 360.474483546 578.78840073 330.031153264 571.752252252 306 c 2
 517 119 l 2
 515.599609375 113.094726562 515 106 515 101 c 0
 515 90 520 82 533 82 c 0
 562.799914577 82 587.118132185 104.611999992 609.357863272 146.999991271 c 0
 618.910862834 165.207606308 616.997539945 177.472301523 642 171.339622642 c 2
 655 168.150943396 l 2
 680.431309514 161.913075025 674.754859237 156.090479778 666.000001359 134.555190596 c 0
 625.048394332 33.8220077074 542.315403398 -15 468 -15 c 0
 421 -15 383 8 383 58 c 0
 383 77 385.729492188 94.865234375 390 110 c 2
 444.457732599 303 l 2
 449.89896979 322.283924021 456.532034406 344.321706389 461.269578406 362.999990948 c 0
 477.30225252 426.210559411 474.458860492 461 428 461 c 0
 351.878600424 461 254.765288736 339.246909749 206.898910199 221.0000033 c 0
 194.91943271 191.406451473 188.001375997 164.67262932 180.461538461 132 c 2
 155.307692308 23 l 2
 150.181677921 0.7872709931 149.614122215 0 122 0 c 2
 42 0 l 2
 9.77245924832 0 23.8341209375 16.6145240626 29 39 c 2
 118.307692308 426 l 2
 125.028459435 455.123324218 125.840675324 455 90 455 c 6
EndSplineSet
EndChar

StartChar: o
Encoding: 111 111 52
Width: 618
VWidth: 1155
Flags: HMW
LayerCount: 2
Fore
SplineSet
15 180 m 0
 15 390 173 535 364 535 c 0
 495 535 573 460 573 340 c 0
 573 130 415 -15 224 -15 c 0
 93 -15 15 60 15 180 c 0
160 190 m 0
 160 96 185 55 234 55 c 0
 343 55 428 176 428 330 c 0
 428 424 403 465 354 465 c 0
 245 465 160 344 160 190 c 0
EndSplineSet
EndChar

StartChar: p
Encoding: 112 112 53
Width: 625
VWidth: 1155
Flags: HMW
LayerCount: 2
Fore
SplineSet
192 200 m 0
 192 116 219 57 280 57 c 0
 364 57 440 166 440 340 c 0
 440 414 415 461 363 461 c 0
 282 461 192 324 192 200 c 0
150.651948052 34 m 2
 98.8701298701 -190 l 2
 86.1422940839 -245.05861548 95.15234375 -250 47 -250 c 6
 2 -250 l 2
 -57.04537836 -250 -43.2387447347 -242.381086774 -25.5818181819 -166 c 2
 107.109090909 408 l 2
 113.560849508 435.909292817 123.922267474 445 86 445 c 2
 44 445 l 2
 20.0375851322 445 23 448.852862154 23 472 c 2
 23 496 l 2
 23 525.890778422 32.0121961307 520 60 520 c 2
 222 520 l 2
 257.874528972 520 252.042095441 515.856188345 245.602717391 488 c 2
 240.592773438 468 l 2
 228.873046875 417.302734375 250.19286104 455.775783995 267.999991804 473.001819139 c 0
 306.714882025 510.453336082 353.850774738 535 408 535 c 0
 497 535 580 480 580 340 c 0
 580 110 427 -14 308 -14 c 0
 245.324495558 -14 204.649807063 8.00081594649 179.999999601 46.1654881562 c 0
 155.888606459 83.4965471195 162.498837158 85.2477787175 150.651948052 34 c 2
EndSplineSet
EndChar

StartChar: q
Encoding: 113 113 54
Width: 606
VWidth: 1155
Flags: HMW
LayerCount: 2
Fore
SplineSet
403 321 m 0
 403 405 376 464 315 464 c 0
 231 464 155 355 155 181 c 0
 155 107 180 60 232 60 c 0
 313 60 403 197 403 321 c 0
492 520 m 2
 540 520 l 2
 583.183956339 520 580.792215431 519.101156641 572.677922078 484 c 2
 433.051948052 -120 l 2
 425.660472799 -151.974359244 415.781515558 -175 452 -175 c 2
 478 -175 l 2
 516.073022766 -175 513 -180.010875821 513 -200 c 2
 513 -224 l 2
 513 -253.178467229 506.051694128 -250 464 -250 c 2
 310 -250 l 2
 262.936551593 -250 275.16622078 -238.810586251 283.633799182 -204 c 6
 337.877929688 19 l 2
 352.794921875 83.525390625 338.718286754 55.2913151023 306.00000885 29.655782172 c 0
 271.643627174 2.73675677587 231.712778841 -14 187 -14 c 0
 98 -14 15 41 15 181 c 0
 15 411 168 535 287 535 c 0
 354.115951537 535 399.003218014 507.77131494 420.000000376 466.481489929 c 0
 440.390256387 426.384388946 437.812102114 419.692604154 448.979244403 468 c 2
 455.914295709 498 l 2
 461.237112518 521.02571347 464.001060613 520 492 520 c 2
EndSplineSet
EndChar

StartChar: r
Encoding: 114 114 55
Width: 533
VWidth: 1155
Flags: HMW
LayerCount: 2
Fore
SplineSet
538 431 m 0
 538 379 506 325 446 325 c 0
 402 325 375 355 375 396 c 0
 375 440 404 445 404 457 c 0
 404 464 400 468 389 468 c 0
 329.471405614 468 257.711265446 361.993269887 218.171760668 266.000002516 c 0
 205.791435963 235.943282631 198.939150628 212.069442256 191.538502763 180 c 2
 157.846161633 34 l 2
 150.399732676 1.73217320864 150.13579151 0 110 0 c 2
 49 0 l 2
 12.5984555904 0 21.8195774405 7.88483557537 28.0769230769 35 c 2
 118.076923077 425 l 2
 124.576422095 453.164495745 127.955909257 455 92 455 c 2
 69 455 l 2
 43.3161991861 455 45 456.978888134 45 482 c 2
 45 503 l 2
 45 525.444489111 54.4699251699 520 75 520 c 2
 226 520 l 2
 252.58581454 520 261.146083266 524.966360819 255.615384615 501 c 2
 245.923076923 459 l 2
 229.04857375 385.877152918 235.747640325 412.281997592 268.999984658 451.999340178 c 4
 309.779981941 500.707879539 360.032033995 535 419 535 c 0
 488 535 538 489 538 431 c 0
EndSplineSet
EndChar

StartChar: s
Encoding: 115 115 56
Width: 526
VWidth: 1155
Flags: HMW
LayerCount: 2
Fore
SplineSet
346 133 m 0
 346 240 88 234 88 380 c 0
 88 459 168 537 321 537 c 0
 439 537 511 487 511 411 c 0
 511 361 484 327 432 327 c 0
 395 327 369 355 369 390 c 0
 369 439 409 439 409 449 c 0
 409 465 383 477 321 477 c 0
 268 477 214 462 214 406 c 0
 214 316 469 325 469 152 c 0
 469 38 339 -17 212 -17 c 0
 83 -17 -5 36 -5 126 c 0
 -5 189 34 226 79 226 c 0
 122 226 146 199 146 162 c 0
 146 109 103 112 103 92 c 0
 103 73 147 48 214 48 c 0
 304 48 346 92 346 133 c 0
EndSplineSet
EndChar

StartChar: t
Encoding: 116 116 57
Width: 395
VWidth: 1155
Flags: HMW
LayerCount: 2
Fore
SplineSet
87 455 m 2
 49 455 l 2
 25.782550697 455 30 461.196389382 30 483 c 2
 30 501 l 2
 30 520.951401414 31.1074622442 520 51 520 c 2
 97 520 l 2
 130.893382881 520 130.914772214 521.736135506 137.354237351 549 c 2
 144.439951637 579 l 2
 150.766444364 605.785553884 148.378088647 608.694634727 178.99999835 612.9382266 c 0
 208.12776789 616.974760157 233.724547198 626.411396128 247.999999242 632.484005354 c 0
 261.240853238 638.116508752 256.522621465 638 268 638 c 2
 278 638 l 2
 293.062351434 638 285.843137826 629.225210351 283.332035087 619 c 6
 268.59726102 559 l 2
 259.932913337 523.718776232 258.518365782 520 281 520 c 2
 343 520 l 2
 370.120843675 520 375 522.272933775 375 507 c 2
 375 475 l 2
 375 451.858636464 370.716371185 455 337 455 c 2
 271 455 l 2
 237.371560823 455 241.024092752 446.722058811 234.707280667 421 c 2
 162.998046875 129 l 2
 160.049804688 116.994140625 158.998046875 110 158.998046875 101 c 0
 158.998046875 90 163.998046875 82 176.998046875 82 c 0
 207.263259257 82 230.460700956 105.323643254 252.532249216 148.99999114 c 0
 262.033130492 167.800837866 260.052847139 177.21297352 285 171.093860554 c 2
 297 168.150464328 l 2
 320.235798261 162.451117584 317.818867378 159.733064748 309.76464837 138.999980354 c 0
 269.463752829 35.2578462452 185.3983269 -15 109.998046875 -15 c 0
 62.998046875 -15 24.998046875 8 24.998046875 58 c 0
 24.998046875 66 25.87890625 77.0283203125 27.998046875 86 c 2
 110.428523065 435 l 2
 115.64568155 457.088775842 113.118036927 455 87 455 c 2
EndSplineSet
Substitution2: "'ss01' Style Set 1 lookup 2-1" uniFFF0
EndChar

StartChar: u
Encoding: 117 117 58
Width: 754
VWidth: 1155
Flags: HMW
LayerCount: 2
Fore
SplineSet
718.05481909 130.00000315 m 0
 685.981907733 48.9408902084 620.187458173 -15 531 -15 c 0
 484 -15 450 13 450 63 c 0
 450 68 451 79 452 85 c 2
 454.365435728 104 l 2
 461.443667799 160.854814421 449.507951019 126.766534853 430.000004566 102.511010892 c 0
 372.095690828 30.5147363107 302.364849447 -14 230 -14 c 0
 146.507720842 -14 82.3767767343 32.6432162593 103.655052906 154 c 0
 107.170991652 174.052518099 113.260042336 193.549683055 118.662162162 212 c 2
 174 401 l 2
 175.400390625 406.905273438 176 414 176 419 c 0
 176 430 171 438 158 438 c 0
 130.384107046 438 107.47585325 418.580988472 86.5667873827 382.000008108 c 0
 74.5833704587 361.034693734 71.6680490046 343.100289867 46 349.396226415 c 6
 30 353.320754717 l 2
 6.30644565434 359.132381255 22.2345713374 380.035206779 29.9999985262 397.039881121 c 0
 72.4181008106 489.926724046 151.594677643 535 223 535 c 0
 270 535 308 512 308 462 c 0
 308 443 305.270507812 425.134765625 301 410 c 2
 250.21040483 230 l 2
 244.11176295 208.386212085 237.246878436 185.400514332 231.550965544 164.000009361 c 0
 213.548733257 96.3625877874 214.853657043 59 263 59 c 0
 344.940342016 59 451.204629145 200.078881661 494.183525925 325.999996739 c 0
 498.93544782 339.922348142 502.913742884 353.659404726 506.179099137 367 c 1
 511.86878882 392 l 0
 534.17237238 490 l 2
 539.422133149 513.066990736 536.127940221 520 566 520 c 2
 630 520 l 2
 671.651475045 520 673.512888658 522.046575131 664.98053528 488 c 2
 570 109 l 2
 568.639648438 103.307617188 568 96 568 91 c 0
 568 80 573 72 586 72 c 0
 614.855771745 72 639.389801814 99.3710306178 663.269948775 147.999994238 c 0
 673.325777133 168.477444069 671.267878509 177.160709045 698 170.603773585 c 2
 710 167.660377358 l 2
 735.417976512 161.425779346 726.473709651 151.277391824 718.05481909 130.00000315 c 0
EndSplineSet
EndChar

StartChar: v
Encoding: 118 118 59
Width: 566
VWidth: 1155
Flags: HMW
LayerCount: 2
Fore
SplineSet
400 387 m 0
 355 387 326 420 326 458 c 0
 326 508 365 534 419 534 c 0
 479 534 551 500 551 389 c 0
 551 228.709688078 364.376504063 107.868372268 146.00000753 6.2581133046 c 0
 119.838281719 -5.91489879491 110.042799008 -14.5934937031 86 0.830188679245 c 2
 62 16.2264150943 l 2
 47.4370171475 25.5687059809 56.541090108 43.1507259777 62.3714890991 67.9999991801 c 0
 67.1802516223 88.4950380077 72 109.350781992 72 120 c 0
 72 217 15 279 15 373 c 0
 15 442.49134507 71.5903949958 472.746682943 151.999996102 514.889068281 c 0
 177.340322795 528.169843181 185.881938444 540.529968376 204.14893617 516 c 2
 211.595744681 506 l 6
 222.462126303 491.408001821 223.191169421 488.577110885 200.408937931 474 c 0
 178.687544147 460.101661467 155 438.719462022 155 405 c 0
 155 312 209 291 209 147 c 0
 209 97.3204541438 208.684559761 102.781900885 245.74553164 124 c 0
 390.567622935 206.913354164 482 283.877041173 482 383 c 0
 482 425 473 428 463 428 c 0
 442 428 442 387 400 387 c 0
EndSplineSet
EndChar

StartChar: w
Encoding: 119 119 60
Width: 967
VWidth: 1155
Flags: HMW
LayerCount: 2
Fore
SplineSet
560 520 m 6
 632 520 l 2
 666.085982462 520 664.970186379 519.870153837 658.570996979 492 c 2
 597.036253776 224 l 2
 591.076148869 198.042174678 581.980239511 162.209171974 580.598777548 136.000008095 c 0
 577.93650024 85.4911528879 597.052837383 58 646 58 c 0
 788 58 869 307 869 395 c 0
 869 401 868 404 865 404 c 0
 854 404 851 382 819 382 c 0
 774 382 751 415 751 453 c 0
 751 503 790 529 834 529 c 0
 892 529 942 494 942 413 c 0
 942 273 852 -15 637 -15 c 0
 566.971979055 -15 489.748421995 16.5762174385 466.829580446 100 c 0
 456.44805368 137.788394747 457.368647259 136.964262184 432.000006058 102.93618341 c 0
 378.138995264 30.6900310183 312.507192325 -14 240 -14 c 0
 158.84102611 -14 95.9763507863 30.0726283642 112.069773811 144 c 0
 115.305801897 166.908251017 122.551067146 191.128260098 128.662162162 212 c 2
 184 401 l 2
 185.400390625 406.905273438 186 414 186 419 c 0
 186 430 181 438 168 438 c 0
 141.408530885 438 119.181915039 419.994980262 98.9020720279 386.000007816 c 0
 89.3428603639 369.975961824 78.1450130874 343.964430752 62 347.924528302 c 2
 38 353.811320755 l 2
 18.2537007657 358.654752642 29.760794469 372.900341 35.999998617 387.874439086 c 0
 77.286930565 486.963129569 159.284574802 535 233 535 c 0
 280 535 318 512 318 462 c 0
 318 443 315.270507812 425.134765625 311 410 c 2
 259.646075994 228 l 2
 252.648626321 203.200807628 243.776906592 174.172629892 238.00552321 150.00000873 c 0
 223.972778688 91.2258475401 228.285641454 59 273 59 c 0
 351.054544312 59 439.409193251 187.015586095 482.530699068 307.999996708 c 0
 492.464532079 335.870983799 498.862899956 363.558377026 505.894736842 394 c 2
 526.684210526 484 l 6
 534.525549117 517.946048076 537.71662451 520 560 520 c 6
EndSplineSet
EndChar

StartChar: x
Encoding: 120 120 61
Width: 626
VWidth: 1155
Flags: HMW
LayerCount: 2
Fore
SplineSet
542.000001416 80.6353778348 m 0
 505.940478332 14.2768102001 447.718176843 -15 394 -15 c 0
 326.6953125 -15 280.8203125 25.2294921875 268.005859375 73.38671875 c 0
 264.967797732 84.8039671032 261.648032317 98.1932789778 258.113330043 112.99999761 c 0
 248.612573219 152.798266922 249.979546934 147.242950368 231.000003136 118.561384825 c 0
 184.078061896 47.6537409238 117.463710947 -15 44 -15 c 0
 -37 -15 -65 44 -65 96 c 0
 -65 140 -32 181 8 181 c 0
 56 181 76 152 76 117 c 0
 76 75 37 73 37 57 c 0
 37 47 44 45 56 45 c 0
 97.5551751628 45 169.963626459 118.462801185 216.982665482 194.999997706 c 0
 230.227080395 216.559144982 232.633023232 224.407996251 226.09935571 252.999996951 c 0
 209.902931586 323.877213814 193.192811516 393.569497938 179.774414062 430.463867188 c 0
 175.879882812 441.171875 167.380859375 450 151 450 c 0
 134.06467742 450 117.129354841 440.895074575 101.242976813 408 c 0
 92.5898089972 390.082347523 93.369140625 377.890625 71 386.678710938 c 6
 46 397.285714286 l 2
 29.9858129653 403.577002049 36.6759974624 410.082384112 42.9999967886 424.130963661 c 0
 76.8721619311 499.376987887 130.165578947 537 196 537 c 0
 263.3046875 537 305.1796875 496.770507812 317.994140625 448.61328125 c 0
 320.561305829 438.966034925 323.204818173 428.363119991 325.922205653 417.00000272 c 0
 337.577483564 368.261907508 340.031371637 394.972996112 359.683473056 423.999997749 c 0
 401.062471497 485.118563641 456.450582849 535 522 535 c 0
 603 535 631 476 631 424 c 0
 631 380 598 339 558 339 c 0
 510 339 490 368 490 403 c 0
 490 445 529 447 529 463 c 0
 529 473 522 475 510 475 c 0
 469.169320941 475 408.814321478 404.07645169 367.584343054 329.000002289 c 0
 355.686312817 307.334653453 352.433720975 298.64983357 358.666724438 271.000003517 c 0
 373.83843035 203.697764312 390.443774575 135.431457081 408.225585938 86.5361328125 c 0
 412.120117188 75.828125 419.619140625 68 438 68 c 0
 449.506426063 68 469.794341562 76.7814894365 487.204874314 111 c 0
 495.243379558 126.798808715 497.732421875 138.053710938 518 130.15234375 c 2
 539 121.016949153 l 2
 563.274250162 111.554105869 552.817055003 100.541469781 542.000001416 80.6353778348 c 0
EndSplineSet
EndChar

StartChar: y
Encoding: 121 121 62
Width: 705
VWidth: 1155
Flags: HMW
LayerCount: 2
Fore
SplineSet
548 397 m 0
 513 397 484 430 484 468 c 0
 484 513 523 544 577 544 c 0
 645 544 680 506 680 425 c 0
 680 245 350 -265 85 -265 c 0
 -22 -265 -85 -203 -85 -116 c 0
 -85 -60 -46 -13 3 -13 c 0
 43 -13 73 -41 73 -82 c 0
 73 -143 11 -140 11 -160 c 0
 11 -183 42 -205 85 -205 c 0
 144.265588517 -205 207.577130864 -173.415457204 268.999994304 -124.249437599 c 0
 295.945806942 -102.68062302 290.201256031 -103.376031987 277.988907113 -68.0000024396 c 0
 233.42165164 61.0998584556 199.084259274 375.069803778 174.774414062 439.463867188 c 0
 170.75 450.124023438 167.380859375 462 150 462 c 0
 138.414324715 462 114.501599977 446.933606225 95.8306073652 410 c 0
 86.2578365496 391.063837626 89.4956060677 381.706323435 68 392.673469388 c 2
 49 402.367346939 l 2
 34.6854935986 409.670666531 36.6408827634 411.788584078 43 426.714915333 c 0
 75.931459502 504.012731198 123.916783519 537 191 537 c 0
 278.3046875 537 304.706054688 495.353515625 318.994140625 447.61328125 c 0
 340.123323862 377.016395031 353.140570212 180.21059077 388.999117047 51.0000032305 c 0
 402.16006835 3.57660210245 405.147969239 13.6583160118 428.967551594 44.9999955006 c 4
 534.603889902 183.995726336 611 341.751290371 611 407 c 0
 611 415 608 418 603 418 c 0
 582 418 590 397 548 397 c 0
EndSplineSet
EndChar

StartChar: z
Encoding: 122 122 63
Width: 575
VWidth: 1155
Flags: HMW
LayerCount: 2
Fore
SplineSet
37.9999976807 414.168747587 m 0
 77.7428985858 470.053724696 142.974045236 535 217 535 c 0
 320.813476562 535 367.2421875 471 423 471 c 0
 459.301978459 471 507.043485043 495.023009063 541.99999871 516.249021749 c 0
 561.985125143 528.38422926 567.032968129 540.471768098 580.425 522 c 2
 586.95 513 l 2
 604.075731766 489.378301012 590.376550046 486.842980515 570 469.571428571 c 2
 196 152.561904762 l 2
 164.491974487 125.855102184 112.871485102 96.2464137063 183.999995805 121.294372211 c 0
 220.06061408 133.99314604 248.734762115 142 267 142 c 0
 340.813476562 142 370.2421875 110 406 110 c 0
 439.184693 110 466.750896972 127.479743643 488.205363679 157.999996798 c 0
 499.844218831 174.556959528 498.562326329 188.731736833 518 175.392156863 c 2
 534 164.411764706 l 2
 557.391968828 148.358452765 554.015488165 145.313095438 538.308615766 120.000001659 c 0
 498.703416246 56.1725187484 427.713794581 -15 333 -15 c 0
 259.186523438 -15 182.7578125 39 137 39 c 0
 105.141917558 39 60.0685041682 24.9036469881 24.0000013689 8.99054813096 c 0
 -9.52077514414 -5.7985168155 -15.162457172 -22.7261596253 -35.3555555556 4 c 2
 -44.4222222222 16 l 2
 -58.172257543 34.1985761598 -47.9693712573 35.9489935515 -32 49.4615384615 c 2
 364 384.538461539 l 2
 409.344767537 422.907110993 393.217986773 415.916413105 350.000004985 397.443272292 c 4
 328.382891509 388.203229961 308.603287379 385 293 385 c 0
 229.186523438 385 213.7578125 423 158 423 c 0
 128.276461032 423 101.000259374 399.750295559 80.0000016517 372.393919805 c 0
 67.0878666201 355.573687294 68.3769067886 346.173247699 49 358.6875 c 2
 27 372.895833333 l 2
 9.72284364738 384.053996811 26.2018193932 397.578591646 37.9999976807 414.168747587 c 0
EndSplineSet
EndChar

StartChar: comma
Encoding: 44 44 65
Width: 215
Flags: HMW
LayerCount: 2
Back
SplineSet
125 24 m 5
 125 -66 27 -156 -63 -156 c 5
 -63 -116 l 5
 -8 -116 82 -49 76 11 c 5
 92.365234375 16.9150390625 96.7646484375 78.1123046875 125 24 c 5
-11 49 m 4
 -11 82 18 108 56 108 c 4
 95 108 125 77 125 24 c 4
 125 9.2919921875 99.0439453125 28.44140625 91 19.107421875 c 4
 67.5068359375 -8.15625 60.2919921875 -10 42 -10 c 4
 9 -10 -11 16 -11 49 c 4
EndSplineSet
Fore
SplineSet
-16 61 m 0
 -16 108 23 143 71 143 c 0
 120 143 160 102 160 29 c 0
 160 -62.5064402959 68.3363643947 -146.003436704 -25.9999972097 -155.167575461 c 0
 -39.1402490721 -156.444061954 -43 -158.558512541 -43 -144 c 2
 -43 -118 l 2
 -43 -100.976995627 -34.1293325329 -106.423626468 -20.0000015368 -103.647258263 c 0
 30.1733801929 -93.7883497391 84.2853836954 -54.2863555488 97.9999996198 -10.7043801806 c 0
 103.935328283 8.15676394649 91.9633335587 -4.7463057979 82.000005426 -8.66611650558 c 4
 71.0525672198 -12.973099567 59.704021788 -15.0000000005 48 -15 c 0
 10 -15 -16 18 -16 61 c 0
EndSplineSet
EndChar

StartChar: exclam
Encoding: 33 33 67
Width: 325
Flags: HMW
LayerCount: 2
Fore
SplineSet
285 637 m 0
 237.110388997 485.198968897 185.138515905 390.54960705 149.003039116 266 c 0
 144.867533599 251.745986138 142.807892207 225 126 225 c 6
 115 225 l 6
 96.0662124122 225 101.835901421 244.774750378 105.364139184 264 c 4
 129.159054297 393.657696991 112.246723673 510.323805136 145 675 c 0
 153 715 173 759 223 759 c 0
 275 759 295 724 295 692 c 0
 295 674 290 653 285 637 c 0
EndSplineSet
Refer: 1 46 N 1 0 0 1 40 0 2
EndChar

StartChar: quotesingle
Encoding: 39 39 70
Width: 227
Flags: HMW
LayerCount: 2
Fore
SplineSet
119 488 m 6
 111 488 l 2
 90.9238657621 488 97.3720498508 495.400268558 98.7401894649 511 c 0
 104.593000174 577.734618526 90 622.546265827 90 682 c 0
 90 731 129 763 175 763 c 0
 211 763 237 739 237 697 c 0
 237 633.872137737 159.992715095 589.996096701 138.461732639 511 c 0
 134.417425959 496.161641268 139.051316219 488 119 488 c 6
EndSplineSet
EndChar

StartChar: question
Encoding: 63 63 75
Width: 550
Flags: HMW
LayerCount: 2
Fore
SplineSet
258.000001117 197.913093598 m 0
 236.403640892 187.690207227 215.259664461 186.23046875 201.236328125 186.23046875 c 0
 140.798828125 186.23046875 95 233.051757812 95 285.01171875 c 0
 95 442.845703125 409 432.737304688 409 600 c 0
 409 674 360 698 301 698 c 0
 237 698 189 672 189 655 c 0
 189 635 230 631 230 570 c 0
 230 518 187 490 142 490 c 0
 97 490 55 523 55 581 c 0
 55 683 159 765 321 765 c 0
 472 765 540 700 540 590 c 0
 540 362.944335938 175.484375 374.557617188 175.484375 293.689453125 c 0
 175.484375 277.388671875 186.681640625 263.1015625 210.245117188 263.1015625 c 0
 218.88316657 263.1015625 233.05550388 264.215302964 247.999999237 271.571575418 c 0
 264.344044901 279.616761959 276.529296875 296.337890625 280.728515625 264 c 2
 281.624898539 242 l 6
 282.81553718 212.778057346 278.474293634 207.60483627 258.000001117 197.913093598 c 0
EndSplineSet
Refer: 1 46 N 1 0 0 1 149 0 2
EndChar

StartChar: parenleft
Encoding: 40 40 76
Width: 435
Flags: HMW
LayerCount: 2
Fore
SplineSet
334 -128 m 6
 328 -146 l 2
 314.827346138 -185.517961586 273.76276316 -152.758374447 245.999981929 -136.8351626 c 0
 113.46421357 -60.819899602 50 78.7011024282 50 235 c 0
 50 496.04249518 202.691056855 710.454787368 445.999983586 789.93558241 c 0
 474.192913878 799.145258948 478.846155559 803.461533324 488.333333333 775 c 2
 492.333333333 763 l 2
 503.678063478 728.965809567 474.403535895 733.888413392 446.000056461 720.889739858 c 0
 287.294652454 648.259210928 205 453.444184282 205 235 c 0
 205 113.258163464 218.471371625 6.91218021455 282.407261994 -63.9999950601 c 0
 299.509228352 -82.968021139 343.379257404 -99.8622277895 334 -128 c 6
EndSplineSet
EndChar

StartChar: asterisk
Encoding: 42 42 78
Width: 641
VWidth: 1155
Flags: HMW
LayerCount: 2
Fore
SplineSet
385 482.073852948 m 0
 421.739903274 463.238592533 455.997955998 452.182718562 493.04296875 430.794921875 c 0
 535.478515625 406.294921875 543.69140625 356.51953125 520.69140625 316.682617188 c 0
 502.69140625 285.505859375 468.90625 274.989257812 432.533203125 295.989257812 c 0
 382.768937693 324.720471828 378.722625631 400.735377972 334.917344029 457.999998416 c 0
 325.525611483 470.277376391 318.789189821 483.585819965 319.545973191 455 c 0
 320.752354824 409.431598894 329.534179707 372.121697939 329.534179688 326 c 0
 329.534179688 277 290.534179688 245 244.534179688 245 c 0
 208.534179688 245 182.534179688 269 182.534179688 311 c 0
 182.534179688 365.368632744 239.653497144 405.457255034 269.259303983 466 c 0
 283.985518785 496.114547189 283.548172875 501.220125568 256 483.484657881 c 0
 221.052730911 460.985664409 194.264014518 436.704655495 157.025390625 415.205078125 c 0
 114.58984375 390.705078125 67.376953125 408.48046875 44.376953125 448.317382812 c 0
 26.376953125 479.494140625 34.1611328125 514.010742188 70.5341796875 535.010742188 c 0
 115.716369953 561.096853217 175.808552829 535.058019605 239.999995467 537.004020777 c 0
 296.82870563 538.726816404 272.733741697 550.297418791 242 564.848200388 c 0
 210.467346841 579.777223799 180.30435606 590.568940751 148.025390625 609.205078125 c 0
 105.58984375 633.705078125 97.376953125 683.48046875 120.376953125 723.317382812 c 0
 138.376953125 754.494140625 172.161132812 765.010742188 208.534179688 744.010742188 c 0
 253.233760909 718.204065792 261.048267666 654.249757916 293.919407887 600.000001681 c 0
 306.188055548 579.75211431 323.981741295 545.305685802 320.974874189 598 c 4
 318.70009556 637.864714868 311.534179586 672.337170912 311.534179688 714 c 0
 311.534179688 763 350.534179688 795 396.534179688 795 c 0
 432.534179688 795 458.534179688 771 458.534179688 729 c 0
 458.534179688 674.034911264 400.153982108 633.664871924 370.84443449 572 c 0
 353.352336369 535.198067595 365.895568176 543.684341441 391 560.400610846 c 0
 423.120274331 581.788514098 448.93866381 604.52758543 484.04296875 624.794921875 c 0
 526.478515625 649.294921875 573.69140625 631.51953125 596.69140625 591.682617188 c 0
 614.69140625 560.505859375 606.90625 525.989257812 570.533203125 504.989257812 c 0
 522.29820873 477.14010114 457.068193452 508.6997782 388.000004572 502.19319426 c 0
 351.606269508 498.764714436 362.38867967 493.665884195 385 482.073852948 c 0
EndSplineSet
EndChar

StartChar: at
Encoding: 64 64 79
Width: 1060
VWidth: 1155
Flags: HMW
LayerCount: 2
Fore
SplineSet
644 346 m 0
 644 387.927734375 650 468 584 468 c 0
 510 468 455 364 455 240 c 0
 455 173.072265625 460 132 514 132 c 0
 552.650608278 132 594.512975804 166.526411917 619.999999011 224.38660514 c 0
 624.959852611 235.646377822 628.692080233 247.424234338 631.84516129 261 c 0
 637.937158898 287.229434144 644 312.90073582 644 346 c 0
816 -84.8425297528 m 4
 733.35410066 -170.034425396 620.076044037 -219 469 -219 c 0
 306 -219 45 -112 45 221 c 0
 45 554 292 795 585 795 c 0
 858 795 1010 604 1010 421 c 0
 1010 261 912 70 741 70 c 0
 689.315549037 70 655.074428159 91.2590585418 635.999998633 120.401923066 c 0
 615.62686742 151.529008785 625.08477321 148.767685824 601.00000769 122.35375228 c 0
 570.653384445 89.0723948581 531.286258233 70 484 70 c 0
 375 70 314 125.583984375 314 230 c 0
 314 380 409 529 568 529 c 0
 630.943248951 529 656.213750026 502.590238602 666.321026424 458.000003859 c 0
 673.630139257 425.754417196 671.051066017 429.803200905 678.064516129 460 c 2
 687.122580645 499 l 2
 692.257057127 521.106773741 695.097802118 520 722 520 c 2
 788 520 l 2
 828.394669181 520 820.631171726 514.106433822 813.406451613 483 c 2
 750 210 l 2
 748 197 736 145 778 145 c 0
 879 145 937 271 937 425 c 0
 937 602 786 732 602 732 c 0
 368 732 190 503 190 231 c 0
 190 -71 361 -154 495 -154 c 0
 589.438738327 -154 678.105404994 -120.192151704 761 -40.5960778568 c 0
 778.042371765 -24.231851921 781.071810982 -10.0718109816 800 -29 c 2
 815 -44 l 2
 834.439543685 -63.4395436852 835.61800632 -64.6201695333 816 -84.8425297528 c 4
EndSplineSet
EndChar

StartChar: dollar
Encoding: 36 36 80
Width: 678
Flags: HMW
LayerCount: 2
Fore
SplineSet
453 835 m 2
 481 835 l 2
 508.663275625 835 509.282614822 836.000021679 503.065217391 814 c 2
 491.195652174 772 l 2
 485.954935753 753.455926511 495.537494898 756.955232925 512.300030155 752.000004623 c 0
 595.830619169 727.307251863 658 668.008256749 658 579 c 0
 658 521 618 498 579 498 c 0
 542 498 507 524 507 571 c 0
 507 607 549 622 549 645 c 0
 549 665.36331469 536.180405215 683.754384028 496 692.902600191 c 0
 473.421088801 698.043333822 470.098165721 697.347355627 464.065217391 676 c 2
 409.239130435 482 l 2
 399.563011382 447.76142489 394.189570461 443.499344132 426.058823397 430 c 0
 512.027819764 393.584804798 599 346.499489866 599 215 c 0
 599 72.2670647642 473.142043496 -7.0841657573 305.000007169 -14.4378279891 c 0
 275.801930379 -15.7148007154 269.661355796 -11.8905871838 262.847826087 -36 c 2
 253.239130435 -70 l 2
 247.964282828 -88.6648453793 238.860901822 -85 216 -85 c 2
 204 -85 l 2
 181.835433966 -85 178.295229108 -87.4938046955 183.52173913 -69 c 2
 191.717391304 -40 l 2
 199.931360839 -10.9351847239 202.599604649 -10.6050468188 171.999995417 -3.1220626444 c 0
 52.3274839967 26.1432623561 3.5527136788e-14 104.539115057 0 176 c 0
 0 234 40 267 79 267 c 4
 126 267 151 241 151 194 c 0
 151 158 104 153 104 130 c 0
 104 108.989447491 120.271989082 77.4808375102 184 61.7143927389 c 0
 220.107496655 52.7813216507 220.195692399 60.7693731028 229.304347826 93 c 2
 294.586956522 324 l 2
 302.126016054 350.67667219 303.339742248 351.662528799 279.361005943 362 c 4
 201.387474126 395.615163424 129 439.646105489 129 555 c 0
 129 679.784169583 266.28356555 758.500028579 401.999996147 764.615595999 c 0
 419.260106982 765.393360128 419.489669564 765.96344615 423.456521739 780 c 2
 434.760869565 820 l 2
 438.142114794 831.964406193 436.837888094 835 453 835 c 2
259 575 m 0
 259 534.720394479 278.087607305 507.914394114 307.217630238 487 c 0
 330.677407039 470.156655284 334.757003443 466.140166029 343.760869565 498 c 2
 392.934782609 672 l 2
 399.801758415 696.298529775 402.250011705 699.650490675 373.000006946 695.03522929 c 0
 300.882179737 683.655996163 259 646.997042658 259 575 c 0
469 190 m 0
 469 254.19409705 433.972502184 289.026909165 386.403092493 315 c 0
 363.676969691 327.408555323 364.482832246 323.631560255 357.239130435 298 c 6
 299.304347826 93 l 2
 288.955561329 56.3812170105 283.982031196 48.4366575972 331.000002176 55.8087702166 c 0
 428.959338506 71.1681582231 469 130.584079112 469 190 c 0
EndSplineSet
EndChar

StartChar: numbersign
Encoding: 35 35 81
Width: 660
Flags: HMW
LayerCount: 2
Fore
SplineSet
312 805 m 2
 334 805 l 2
 364.769806639 805 361.532485891 803.324741109 355.023255814 780 c 2
 299.209302326 580 l 2
 290.528007532 548.892026988 284.181533438 545 326 545 c 2
 418 545 l 2
 458.894621228 545 454.059383709 557.962791625 462.441860465 588 c 2
 517.697674419 786 l 2
 522.670307028 803.818600185 522.910165414 805 546 805 c 2
 566 805 l 2
 595.813662786 805 588.425997136 799.359823069 582.465116279 778 c 2
 525.534883721 574 l 2
 517.096555552 543.762657395 517.741826826 545 556 545 c 2
 663 545 l 2
 687.343914279 545 690 547.221540363 690 522 c 2
 690 506 l 2
 690 475.071064051 683.156245751 480 654 480 c 6
 534 480 l 2
 495.957073239 480 497.880891679 474.906528517 489.813953488 446 c 2
 451.302325581 308 l 2
 445.738455402 288.062798525 441.044857137 285 468 285 c 2
 586 285 l 2
 601.288429807 285 620 291.276386034 620 274 c 2
 620 250 l 2
 620 223.930993958 623.11337849 220 596 220 c 2
 448 220 l 2
 420.564738456 220 423.993176744 210.142216667 418.372093023 190 c 2
 358.093023256 -26 l 2
 352.429376709 -46.2947334608 355.754757191 -55 328 -55 c 2
 310 -55 l 2
 273.316524122 -55 286.311826517 -43.1326216491 293.325581395 -18 c 2
 355.279069767 204 l 2
 359.736761593 219.973395708 360.435160914 220 340 220 c 2
 224 220 l 2
 192.865647575 220 196.284523171 211.186208031 189.813953488 188 c 2
 129.534883721 -28 l 2
 123.98040964 -47.9035321221 126.836550236 -55 100 -55 c 2
 80 -55 l 2
 47.568072401 -55 57.2591460939 -46.9047264969 63.6511627907 -24 c 2
 125.046511628 196 l 2
 132.56915449 222.956136923 128.721699796 220 96 220 c 2
 0 220 l 2
 -23.0309535964 220 -30 215.298413885 -30 240 c 2
 -30 258 l 2
 -30 284.36837253 -30.5200387441 285 -4 285 c 2
 120 285 l 2
 156.496158026 285 152.621356936 294.809862355 160.209302326 322 c 2
 198.720930233 460 l 2
 205.707878161 485.036563409 196.907247078 480 168 480 c 2
 60 480 l 2
 41.3903060944 480 40 478.781903163 40 498 c 2
 40 524 l 2
 40 549.321949436 46.1739807055 545 70 545 c 2
 196 545 l 2
 230.691112066 545 226.221621369 558.54414324 233.325581395 584 c 2
 290.255813953 788 l 2
 294.234065997 802.255403156 293.138556048 805 312 805 c 2
404 480 m 2
 290 480 l 2
 268.51621758 480 270.193970355 476.028393771 265.720930233 460 c 2
 223.302325581 308 l 2
 217.433201604 286.968972416 213.911086251 285 242 285 c 2
 352 285 l 2
 382.33099499 285 379.663281348 291.376758164 385.976744186 314 c 2
 425.046511628 454 l 2
 431.66785702 477.726487657 435.703567254 480 404 480 c 2
EndSplineSet
EndChar

StartChar: slash
Encoding: 47 47 82
Width: 520
Flags: HMW
LayerCount: 2
Fore
SplineSet
486 780 m 2
 516 780 l 6
 542.821289062 780 549.346136963 778.79823592 540.206451613 762 c 2
 61.4107526882 -118 l 2
 48.3329397546 -142.036296499 49.143389147 -150 10 -150 c 2
 -20 -150 l 2
 -61.8263158837 -150 -43.6592277836 -138.460042737 -31.3182795699 -116 c 2
 448.911827957 758 l 2
 458.304498675 775.094293088 458.001136233 780 486 780 c 2
EndSplineSet
EndChar

StartChar: percent
Encoding: 37 37 83
Width: 1010
Flags: HMW
LayerCount: 2
Fore
SplineSet
655 160 m 0
 655 98 659 40 693 40 c 0
 757 40 805 138 805 260 c 0
 805 322 801 380 767 380 c 0
 703 380 655 282 655 160 c 0
510 160 m 0
 510 323 647 435 780 435 c 0
 863 435 950 383 950 260 c 0
 950 97 793 -15 680 -15 c 0
 597 -15 510 37 510 160 c 0
798 750 m 2
 818 750 l 6
 846.167248316 750 837.775222564 734.994135717 821.486666667 715 c 2
 258.552 24 l 2
 246.259704361 8.91125739868 244.941225743 0 216 0 c 2
 194 0 l 2
 146.953975533 0 168.139320592 9.90988708444 185.461333333 31 c 2
 758.752 729 l 2
 770.098158631 742.814316515 771.26784003 750 798 750 c 2
205 490 m 0
 205 428 209 370 243 370 c 0
 307 370 355 468 355 590 c 0
 355 652 351 710 317 710 c 0
 253 710 205 612 205 490 c 0
60 490 m 0
 60 653 197 765 330 765 c 0
 413 765 500 713 500 590 c 0
 500 427 343 315 230 315 c 0
 147 315 60 367 60 490 c 0
EndSplineSet
EndChar

StartChar: hyphen
Encoding: 45 45 85
Width: 460
Flags: HMW
LayerCount: 2
Fore
SplineSet
100 425 m 2
 376 425 l 6
 412.34765625 425 410 424.233398438 410 396 c 2
 410 381 l 6
 410 350.775390625 410.248408737 350 372 350 c 6
 86 350 l 2
 64.942490201 350 70 358.729492188 70 378 c 2
 70 398 l 2
 70 424.420898438 74.5027260462 425 100 425 c 2
EndSplineSet
EndChar

StartChar: plus
Encoding: 43 43 87
Width: 530
Flags: HMW
LayerCount: 2
Fore
SplineSet
179 278 m 2
 77 278 l 2
 53.495533201 278 60 290.666524539 60 312 c 0
 60 325.666666667 60 339.333333333 60 353 c 5
 109.666666667 353 159.333333333 353 209 353 c 0
 242.641553499 353 238.108737775 364.645824879 244.292682927 390 c 2
 270.634146341 498 l 2
 276.52880557 522.168102835 281.33256797 520 311 520 c 2
 327 520 l 2
 357.355948242 520 353.392453386 517.509058882 347.658536585 494 c 2
 320.341463415 382 l 2
 314.300340959 357.231397931 308.389269676 353 341 353 c 2
 437 353 l 2
 459.773579463 353 470 359.013220378 470 334 c 2
 470 306 l 2
 470 282.59866673 473.442223932 278 449 278 c 2
 317 278 l 2
 288.464459224 278 292.413753706 267.496390194 287.170731707 246 c 2
 263.268292683 148 l 2
 253.513815556 108.006643778 248.175298506 110 199 110 c 0
 164.810474964 110 180.55141303 128.660793423 186.243902439 152 c 2
 207.707317073 240 l 2
 215.852074617 273.393505929 222.702064594 278 179 278 c 2
EndSplineSet
EndChar

StartChar: less
Encoding: 60 60 89
Width: 560
Flags: HMW
LayerCount: 2
Fore
SplineSet
190 369.333333333 m 6
 424 281.733333333 l 2
 444.547254066 274.041284375 450 275.742760217 450 246 c 2
 450 198 l 2
 450 163.807389203 434.344022124 181.021529952 414 188.846153846 c 2
 96 311.153846154 l 2
 66.6035509371 322.460172716 60 320.809123807 60 363 c 24
 60 384 60 397 60 418 c 24
 60 450.653852215 68.3364932394 447.637053984 92 455.12244898 c 2
 530 593.673469388 l 2
 549.341243663 599.791617893 550 601.661494835 550 576 c 2
 550 542 l 2
 550 512.704978464 548.22040031 512.455224585 526 505.653061224 c 2
 192 403.408163265 l 2
 138.76014589 387.110248742 138.980932989 388.432778932 190 369.333333333 c 6
EndSplineSet
EndChar

StartChar: backslash
Encoding: 92 92 91
Width: 520
Flags: HMW
LayerCount: 2
Fore
SplineSet
219.980645161 753 m 6
 409.367741935 -102 l 2
 414.959864873 -127.245991902 432.493441582 -150 396 -150 c 2
 344 -150 l 2
 312.365094553 -150 317.551648614 -134.044941347 312.35483871 -110 c 2
 125.835483871 753 l 2
 120.108992905 779.495704468 118.60698464 780 151 780 c 2
 189 780 l 2
 217.213713212 780 215.009841549 775.441006601 219.980645161 753 c 6
EndSplineSet
EndChar

StartChar: bracketleft
Encoding: 91 91 92
Width: 345
Flags: HMW
LayerCount: 2
Fore
SplineSet
405 757 m 6
 405 731 l 2
 405 697.665378969 393.057547129 705 362 705 c 2
 310 705 l 2
 258.777027108 705 258.436209056 702.97837211 249.408602151 661 c 2
 97.7956989247 -44 l 2
 90.7178336096 -76.9120737156 92.4943229562 -75 132 -75 c 2
 184 -75 l 2
 206.525567315 -75 215 -69.7085611551 215 -94 c 2
 215 -116 l 2
 215 -154.497760836 209.228842597 -150 172 -150 c 2
 -8 -150 l 2
 -54.9206854736 -150 -53.2353515625 -141.095703125 -44.828125 -102 c 2
 135.322580645 735 l 2
 143.298059365 772.085976045 139.358284962 780 186 780 c 2
 360 780 l 2
 384.763590677 780 405 784.8359375 405 757 c 6
EndSplineSet
EndChar

StartChar: braceleft
Encoding: 123 123 93
Width: 272
VWidth: 1155
Flags: HMW
LayerCount: 2
Fore
SplineSet
150.000015033 -149.27752604 m 0
 31.267812433 -144.756344675 -35 -116.977230987 -35 -10 c 0
 -35 107 85 162 85 225 c 0
 85 252.867757824 80.3800599276 263.641737381 68 270.824711737 c 0
 50.0525010619 281.237942801 45 278.517534635 45 310 c 2
 45 332 l 2
 45 355.680242143 52.2015107958 351.950824071 69.9999992606 358.369001752 c 0
 98.6850265269 368.712891466 131 384.854755463 131 416 c 0
 131 479 105 494 105 601 c 0
 105 702.579256194 158.845417719 770.288007694 324 779.03644954 c 0
 353.84032637 780.617128419 362 785.192614751 362 752 c 2
 362 730 l 2
 362 705.45820677 346.897172272 713.406901794 326.000001583 710.9174219 c 0
 275.152962142 704.860014213 228 684.890796516 228 642 c 0
 228 576 242 571 242 471 c 0
 242 411.647862775 219.102190929 367.468972525 180.841465964 335.999998788 c 0
 152.505296097 312.693849043 133.517213525 319.828890257 154.337386902 288 c 4
 165.672446063 270.671500974 172 248.67860917 172 220 c 0
 172 120 98 60 98 -6 c 0
 98 -57.8863398567 119.705757732 -76.535738186 161.999979226 -81.5008394763 c 0
 182.250648572 -83.8781529944 192 -77.1248230971 192 -102 c 2
 192 -122 l 2
 192 -156.493570663 181.125948263 -150.462764637 150.000015033 -149.27752604 c 0
EndSplineSet
EndChar

StartChar: bar
Encoding: 124 124 96
Width: 300
VWidth: 1155
Flags: HMW
LayerCount: 2
Fore
SplineSet
216 780 m 6
 242 780 l 2
 285.32384547 780 279.003871316 775.72494773 271.145631068 742 c 2
 49.786407767 -208 l 2
 43.6273823387 -234.43248413 49.0159503419 -250 14 -250 c 2
 -12 -250 l 2
 -58.8682184998 -250 -47.9071423543 -241.018152604 -39.7475728155 -206 c 2
 182.54368932 748 l 2
 188.172267694 772.155982185 184.570301275 780 216 780 c 6
EndSplineSet
EndChar

StartChar: cent
Encoding: 162 162 98
Width: 570
VWidth: 1155
Flags: HMW
LayerCount: 2
Fore
SplineSet
356 615 m 2
 362 615 l 2
 382.254273684 615 396.789434104 620.97149721 391.911049107 602 c 2
 378.025334821 548 l 2
 373.295319794 529.605497115 381.43355847 534.026564187 398.999984749 530.428148434 c 0
 480.954814336 513.640012636 525 453.18103243 525 392 c 0
 525 324 476 295 432 295 c 0
 394 295 357 321 357 368 c 0
 357 416 409 429 409 446 c 0
 409 455.591353362 400.694980756 467.099249626 380 471.332568688 c 0
 362.774731465 474.856131164 358.773015838 473.12987062 354.882477679 458 c 2
 258.968191964 85 l 2
 250.752125873 53.0486318686 254.361385749 52.1527504779 286.999993106 62.8890109832 c 0
 335.766924493 78.9305802112 375.718561075 114.689177612 404 153.606445312 c 0
 414.467773438 168.010742188 413.883789062 173 440 173 c 2
 460 173 l 2
 487.296875 173 486.431640625 172.88671875 476 154.920898438 c 0
 432.903541256 80.6972254038 365.004297083 9.21268974026 257.999999984 -9.98554580349 c 0
 234.193865974 -14.2567365922 233.32753444 -14.7136681505 227.596763393 -37 c 2
 221.682477679 -60 l 2
 214.95870378 -86.1480096071 211.534929554 -85 179 -85 c 4
 151.368635254 -85 149.862147876 -86.5235047885 155.65390625 -64 c 2
 162.85390625 -36 l 2
 169.210174079 -11.2811806643 166.923959022 -14.6310654563 141.844295519 -9 c 0
 69.5864048897 7.22385849852 15 58.4624614323 15 170 c 0
 15 363.328696508 146.416506431 489.536059087 277.999996216 524.866517947 c 0
 304.031626156 531.856068325 308.332583091 529.750409937 315.082477679 556 c 2
 326.396763393 600 l 2
 330.778378932 617.039615987 335.232567458 615 356 615 c 2
197.568191964 99 m 2
 283.711049107 434 l 2
 290.872555069 461.850300962 276.703273793 445.36767988 263.144076289 434.000002517 c 0
 200.446446126 381.43594547 157 281.495425677 157 170 c 0
 157 142.866855089 160.495507007 120.035872649 167.338635214 102.000005372 c 0
 179.448941936 70.081871132 187.996599609 61.7771408401 197.568191964 99 c 2
EndSplineSet
EndChar

StartChar: sterling
Encoding: 163 163 99
Width: 530
VWidth: 1155
Flags: HMW
LayerCount: 2
Fore
SplineSet
504.000001218 128.00861646 m 0
 464.481580891 5.65816687188 371.584649293 -35 288.806640625 -35 c 0
 151.806640625 -35 120.659179688 25 57.6591796875 25 c 0
 27.1845972808 25 8.5233531638 16.7129669286 -6 0.138900785902 c 0
 -10.1185915152 -4.56124025026 -15.7341010271 -20 -24.8837890625 -20 c 24
 -34 -20 -40 -20 -48.8837890625 -20 c 24
 -73.4450536841 -20 -69.2264422169 -13.5445812556 -64.5830483618 6 c 0
 -35.3736044902 128.945924252 109.16133839 201.103996875 122.989257812 261 c 0
 125.56328391 272.149178531 127.052022431 282.781857692 127.667970804 293 c 0
 129.730246881 327.211682937 114.874154193 320 84 320 c 2
 -18 320 l 2
 -41.994776169 320 -37.7699476749 325.456028686 -39.831875 351 c 2
 -41.4462890625 371 l 2
 -43.6383626529 398.15627473 -25.0975158149 395 6 395 c 2
 80 395 l 2
 121.046211156 395 103.92792878 408.569785208 95.7677042006 435 c 0
 85.1739016543 469.312349378 78.4482095912 505.54717922 88.7109375 550 c 0
 121.032226562 690 262.193359375 765 423.193359375 765 c 0
 575.193359375 765 652.5703125 668 633.639648438 586 c 0
 617.557617188 528 573.40234375 500 534.40234375 500 c 0
 497.40234375 500 449.430533657 530.249481037 450.791992188 578 c 0
 452.398681718 634.351520949 502.2578125 639 507.567382812 662 c 0
 513.801757812 689 487.49609375 713 413.49609375 713 c 0
 294.49609375 713 259.103515625 634 242.01953125 560 c 0
 231.776198748 515.632212103 234.310574304 477.892372364 238.668598818 443 c 0
 242.870854839 409.354782678 235.915861916 395 276 395 c 2
 378 395 l 2
 409.631053305 395 413.280395016 400.53845089 413.5540625 371 c 6
 413.813476562 343 l 6
 414.029565324 319.676340289 403.453746406 320 376 320 c 2
 268 320 l 2
 235.594998166 320 240.90255987 308.882612921 232.849958987 287 c 0
 200.463636324 198.991495288 132.703287179 168.407668476 72.0458465428 119 c 0
 9.42484797238 67.992942918 19.1671140414 79.3366472707 83.9999971334 109.31802589 c 0
 108.100024269 120.462864803 133.289308851 127.000000098 158.126953125 127 c 0
 258.126953125 127 250.27734375 83 326.27734375 83 c 0
 364.981109402 83 402.825587165 89.3993512667 425.999998943 116.996484125 c 0
 438.927963436 132.391686262 434.856326645 157 466 157 c 2
 478 157 l 2
 513.253529778 157 512.955207694 155.73425755 504.000001218 128.00861646 c 0
EndSplineSet
EndChar

StartChar: section
Encoding: 167 167 101
Width: 534
VWidth: 1155
Flags: HMW
LayerCount: 2
Fore
SplineSet
410.3359375 658 m 0
 417.954101562 691 372.110351562 704 320.110351562 704 c 0
 267.110351562 704 215.645507812 681 204.794921875 634 c 0
 178.013671875 538 505.631835938 538 468 375 c 0
 458.508235264 333.885748908 434.734681629 295.897203516 394.398152131 264.000003418 c 0
 377.469373128 250.613114214 377.58065069 253.245812285 392.042178447 238 c 0
 414.634122229 214.182839059 425.804856615 183.568947094 416.208007812 142 c 1
 382.197265625 38 291.116210938 -15 156.116210938 -15 c 0
 48.1162109375 -15 -78.1875 32 -51.4072265625 148 c 0
 -40.3251953125 196 1.138671875 224 50.138671875 224 c 0
 77.138671875 224 112.291015625 203 103.749023438 166 c 0
 95.4375 130 52.283203125 125 46.97265625 102 c 0
 39.3544921875 69 114.889648438 46 166.889648438 46 c 0
 229.889648438 46 301.354492188 69 312.205078125 116 c 0
 338.986328125 212 -8.6318359375 212 29 375 c 0
 40.7023791742 425.689913152 64.1077937295 454.075422698 98.6812275705 479 c 0
 130.860610018 502.198664878 125.253927043 494.989523273 104.301510962 525 c 4
 89.1209917742 546.743297577 82.8562625995 573.626224798 90.7919921875 608 c 0
 114.802734375 712 225.883789062 765 320.883789062 765 c 0
 428.883789062 765 535.1875 718 510.715820312 612 c 0
 499.633789062 564 468.169921875 526 419.169921875 526 c 0
 382.169921875 526 354.347337073 546.045112417 355.560546875 594 c 0
 356.597981433 635.006969718 405.025390625 635 410.3359375 658 c 0
153.154668207 448.000001771 m 4
 144.468948733 435.93051114 136.490715988 422.059115314 132.387695312 407 c 0
 115.662131442 345.612984218 217.09344912 326.73898144 303.999997966 291.346187721 c 0
 333.4911085 279.335898445 337.53757622 281.322755339 355.619775511 305.999998616 c 0
 364.477978347 318.089016266 371.255864369 330.681021911 374.612304688 343 c 0
 390.827021508 402.512078938 295.992337161 422.068426361 211.000002054 455.455365307 c 0
 178.80806892 468.101095121 173.952499257 476.900224461 153.154668207 448.000001771 c 4
EndSplineSet
EndChar

StartChar: brokenbar
Encoding: 166 166 102
Width: 300
VWidth: 1155
Flags: HMW
LayerCount: 2
Fore
SplineSet
66 166 m 6
 96 166 l 2
 140.974589332 166 136.38389694 163.357743576 128.139423077 128 c 2
 53.2908653846 -193 l 2
 45.1317502303 -227.991669115 52.3992602508 -250 6 -250 c 2
 -24 -250 l 2
 -64.0791000893 -250 -43.7928925978 -223.379828048 -37.4086538462 -196 c 2
 41.6370192308 143 l 2
 45.7260501324 160.536462424 43.1862485895 166 66 166 c 6
216 780 m 6
 240 780 l 2
 276.61145914 780 280.779252979 783.323012579 273.433944981 752 c 2
 203.083355488 452 l 2
 195.210098377 418.425624143 199.699785703 409.000976562 156 409.000976562 c 2
 123 409.000976562 l 2
 90.0642391047 409.000976562 110.677669963 441.741299072 115.897379068 464 c 2
 176.398886031 722 l 2
 183.169423636 750.871986658 177.269915985 780 216 780 c 6
EndSplineSet
EndChar

StartChar: asciitilde
Encoding: 126 126 104
Width: 688
VWidth: 1155
Flags: HMW
LayerCount: 2
Fore
SplineSet
243 427 m 0
 197.057323456 427 161.750724151 404.664237799 146.000001048 376.281041939 c 0
 136.225026816 358.666294581 145.370454851 343 120 343 c 2
 96 343 l 2
 69.1242895083 343 84.049157894 370.393338263 89.9999988297 387.4131322 c 0
 116.144926806 462.189334662 185.874886321 520 269 520 c 0
 369 520 369 426 445 426 c 0
 490.554054576 426 525.651208732 447.959490881 541.596107797 475.999998897 c 0
 550.814119694 492.210683921 543.221785894 510 566 510 c 2
 578 510 l 2
 606.051712749 510 609.83705115 511.214097631 603.940912623 486.000003128 c 4
 584.204266937 401.598721306 509.549546303 333 419 333 c 0
 302 333 306 427 243 427 c 0
EndSplineSet
EndChar

StartChar: copyright
Encoding: 169 169 105
Width: 870
Flags: HMW
LayerCount: 2
Fore
SplineSet
20 285 m 4
 20 538 248 760 515 760 c 4
 692 760 830 638 830 465 c 4
 830 202 602 -10 335 -10 c 4
 158 -10 20 112 20 285 c 4
75 285 m 4
 75 140 200 39 335 39 c 4
 570 39 775 220 775 465 c 4
 775 610 660 711 515 711 c 4
 280 711 75 520 75 285 c 4
EndSplineSet
Refer: 14 67 N 0.6 0 0 0.6 182 150 2
EndChar

StartChar: registered
Encoding: 174 174 106
Width: 870
Flags: HMW
LayerCount: 2
Fore
SplineSet
20 285 m 0
 20 538 248 760 515 760 c 0
 692 760 830 638 830 465 c 0
 830 202 602 -10 335 -10 c 0
 158 -10 20 112 20 285 c 0
75 285 m 0
 75 140 200 39 335 39 c 0
 570 39 775 220 775 465 c 0
 775 610 660 711 515 711 c 0
 280 711 75 520 75 285 c 0
EndSplineSet
Refer: 29 82 S 0.6 0 0 0.6 188 148 2
EndChar

StartChar: guillemotleft
Encoding: 171 171 108
Width: 695
Flags: HMW
LayerCount: 2
Fore
SplineSet
450.096926918 365 m 6
 577.220656151 216 l 2
 594.229700732 196.063929386 602.625617483 193.590199082 584.145377604 173 c 2
 576.965169271 165 l 2
 558.564106696 144.498018195 558.252453259 145.633097306 537 163.285886594 c 2
 296 363.4661748 l 2
 288.714674449 369.517538155 281.318642766 371.553681021 283.961132812 383 c 2
 285.577148438 390 l 2
 288.951265538 404.615464935 300.074314496 407.317605036 311 413.877015707 c 2
 642 612.598178917 l 2
 663.884690852 625.737004363 668.527274992 635.640283257 680.137304687 609 c 2
 684.931184896 598 l 2
 692.693171319 580.189406715 681.495588397 578.078586004 668 567.815140507 c 2
 458 408.109354377 l 2
 433.128168936 389.194233745 429.187007699 389.508232904 450.096926918 365 c 6
180.335079608 353 m 6
 310.018347013 201 l 2
 319.887261928 189.432778592 318.554648204 189.054431772 308.633007812 178 c 2
 289.784960938 157 l 2
 278.294833982 144.198001592 277.943579942 145.889654773 265 156.640897774 c 2
 20 360.143680391 l 2
 8.53870555582 369.663702071 1.20243534023 371.050312134 5.3462890625 389 c 0
 9.21334665325 405.750706315 23.4338153994 409.33453533 36 416.878845968 c 2
 357 609.596348657 l 2
 374.644648675 620.189596721 387.578660016 637.816967753 397.522460937 615 c 0
 411.847594468 582.129660738 406.195722911 581.653055896 380 561.731110559 c 2
 186 414.193384324 l 2
 150.220678266 386.983076207 151.307173722 387.023215046 180.335079608 353 c 6
EndSplineSet
EndChar

StartChar: mu
Encoding: 181 181 111
Width: 754
VWidth: 1155
Flags: HMW
LayerCount: 2
Fore
SplineSet
156 -143 m 0
 189 -143 212 -167 212 -201 c 0
 212 -236 169 -260 131 -260 c 0
 59 -260 -5 -211 15 -122 c 1
 68.409848323 51.9234850103 123.50696324 224.159703427 174 401 c 0
 175.400390625 406.905273438 176 414 176 419 c 0
 176 430 171 438 158 438 c 0
 130.383789062 438 107.475585938 418.581054688 86.56640625 382 c 0
 74.5830078125 361.03515625 76.384765625 341.943359375 46 349.396484375 c 2
 30 353.3203125 l 2
 6.306640625 359.1328125 22.234375 380.03515625 30 397.040039062 c 0
 72.41796875 489.926757812 151.594726562 535 223 535 c 0
 270 535 308 512 308 462 c 0
 308 443 305.270507812 425.134765625 301 410 c 2
 250.209960938 230 l 2
 244.111328125 208.385742188 237.247070312 185.400390625 231.55078125 164 c 0
 213.548828125 96.3623046875 214.853515625 59 263 59 c 0
 354.448969669 59 472.796947951 230.587118109 506.178710938 367 c 0
 515.511015874 407.999075271 524.8414363 449.000035054 534.172851562 490 c 0
 539.421875 513.067382812 536.127929688 520 566 520 c 2
 630 520 l 2
 671.651367188 520 673.512695312 522.046875 664.98046875 488 c 2
 570 109 l 2
 568.639648438 103.307617188 568 96 568 91 c 0
 568 80 573 72 586 72 c 0
 614.85546875 72 639.389648438 99.37109375 663.26953125 148 c 0
 673.326171875 168.477539062 671.267578125 177.161132812 698 170.603515625 c 2
 710 167.66015625 l 2
 735.41796875 161.42578125 726.473632812 151.27734375 718.0546875 130 c 0
 685.981445312 48.9404296875 620.1875 -15 531 -15 c 0
 484 -15 450 13 450 63 c 0
 450 68 451 79 452 85 c 2
 454.365234375 104 l 2
 461.443359375 160.854492188 449.5078125 126.766601562 430 102.510742188 c 0
 372.095703125 30.5146484375 302.365234375 -14 230 -14 c 0
 207.902244066 -14 187.160738318 -10.7326451303 169.000002223 -3.67753317551 c 0
 120.747724598 15.0675892103 126.532088225 46.5045169273 105.825 -20 c 2
 75 -119 l 1
 65 -156 89 -162 102 -162 c 0
 122 -162 121 -143 156 -143 c 0
EndSplineSet
EndChar

StartChar: asciicircum
Encoding: 94 94 113
Width: 545
Flags: HMW
LayerCount: 2
Fore
SplineSet
342 681.567857143 m 2
 180 567.589285714 l 2
 162.73932554 555.445168326 158.568140214 547.621239857 140 560 c 2
 126 569.333333333 l 2
 102.517725398 584.988183068 122.54966245 591.354456502 140 607.142857143 c 2
 288 741.047619048 l 2
 309.273565195 760.295130415 314.827779489 770 358 770 c 2
 388 770 l 2
 423.323699452 770 426.917789228 767.197077282 440.736842105 747 c 2
 531.052631579 615 l 2
 542.876988484 597.7182476 557.161683186 581.441122124 542 571.333333333 c 6
 528 562 l 2
 509.128613558 549.419075705 508.537380297 551.484558999 493.251231527 567 c 2
 384.876847291 677 l 2
 365.585790189 696.580422958 364.927606641 697.699066101 342 681.567857143 c 2
EndSplineSet
EndChar

StartChar: degree
Encoding: 176 176 115
Width: 320
Flags: HMW
LayerCount: 2
Fore
SplineSet
120 680 m 4
 120 746 174 800 240 800 c 4
 306 800 360 746 360 680 c 4
 360 614 306 560 240 560 c 4
 174 560 120 614 120 680 c 4
175 680 m 4
 175 643 203 615 240 615 c 4
 277 615 305 643 305 680 c 4
 305 717 277 745 240 745 c 4
 203 745 175 717 175 680 c 4
EndSplineSet
EndChar

StartChar: onequarter
Encoding: 188 188 119
Width: 1000
Flags: HMW
LayerCount: 2
Fore
SplineSet
718 750 m 6
 744 750 l 6
 777.421672135 750 754.904521255 733.575685339 745.330666667 718 c 6
 329.816 42 l 6
 316.978800866 21.1151857914 315.367123883 0 280 0 c 6
 266 0 l 6
 216.305338409 0 250.580955997 25.0766459178 264.824 48 c 6
 684.845333333 724 l 6
 693.589607783 738.073403084 693.976736563 750 718 750 c 6
EndSplineSet
Refer: 6 52 N 0.6 0 0 0.6 535 32 2
Refer: 3 49 N 0.6 0 0 0.6 107 456 2
EndChar

StartChar: onehalf
Encoding: 189 189 120
Width: 1000
Flags: HMW
LayerCount: 2
Fore
SplineSet
718 750 m 6
 744 750 l 6
 777.421672135 750 754.904521255 733.575685339 745.330666667 718 c 6
 329.816 42 l 6
 316.978800866 21.1151857914 315.367123883 0 280 0 c 6
 266 0 l 6
 216.305338409 0 250.580955997 25.0766459178 264.824 48 c 6
 684.845333333 724 l 6
 693.589607783 738.073403084 693.976736563 750 718 750 c 6
EndSplineSet
Refer: 4 50 N 0.6 0 0 0.6 576 17 2
Refer: 3 49 N 0.6 0 0 0.6 107 456 2
EndChar

StartChar: threequarters
Encoding: 190 190 121
Width: 1000
Flags: HMW
LayerCount: 2
Fore
SplineSet
718 750 m 6
 744 750 l 6
 777.421672135 750 754.904521255 733.575685339 745.330666667 718 c 6
 329.816 42 l 6
 316.978800866 21.1151857914 315.367123883 0 280 0 c 6
 266 0 l 6
 216.305338409 0 250.580955997 25.0766459178 264.824 48 c 6
 684.845333333 724 l 6
 693.589607783 738.073403084 693.976736563 750 718 750 c 6
EndSplineSet
Refer: 6 52 N 0.6 0 0 0.6 535 32 2
Refer: 5 51 N 0.6 0 0 0.6 65 457 2
EndChar

StartChar: grave
Encoding: 96 96 123
Width: 395
Flags: HMW
LayerCount: 2
Fore
SplineSet
261 700 m 2
 242.021484375 700.643554688 216 716 216 745 c 0
 216 774 243.598632812 796.1015625 271 788 c 2
 479 730.273127753 l 2
 491.35543407 726.84408658 498.26073594 728.911039097 497.2 713 c 0
 495.816782825 692.251742376 491.959708944 695.085963639 471 695.531914894 c 6
 261 700 l 2
EndSplineSet
EndChar

StartChar: acute
Encoding: 180 180 124
Width: 395
Flags: HMW
LayerCount: 2
Fore
SplineSet
285 715 m 2
 75 710.531914894 l 2
 33.0288902801 709.638912559 46.7873737376 739.663456147 73 746.938325991 c 6
 275 803 l 2
 302.401367188 811.1015625 330 789 330 760 c 0
 330 731 303.978515625 715.643554688 285 715 c 2
EndSplineSet
EndChar

StartChar: multiply
Encoding: 215 215 127
Width: 530
Flags: HMW
LayerCount: 2
Fore
SplineSet
318 384.831705498 m 6
 398 453.064221278 l 2
 418.837157314 470.836367094 428.633999045 491.278956596 450 469.913382407 c 2
 468 451.91374194 l 2
 489.807288493 430.106889027 473.187400069 426.601478974 452 408.530660772 c 2
 360 330.06349306 l 2
 338.657867763 311.860703173 336.652315855 311.82948619 354.716981877 290 c 2
 417.609649424 214 l 2
 433.811816643 194.421172187 433.94937173 194.035311245 416 176.086303298 c 2
 398 158.086668106 l 2
 381.6080486 141.695048924 379.312155179 153.868817071 365.963089449 170 c 2
 301.415614443 248 l 2
 281.034296067 272.629047584 276.207036693 258.596139745 254 239.655669391 c 2
 164 162.894309672 l 2
 150.69156154 151.543489318 147.413032226 142.672905274 134 156.0859375 c 2
 110 180.0859375 l 2
 90.674611066 199.411326434 103.090383531 201.533908036 122 217.662041838 c 2
 218 299.541060774 l 2
 242.720102155 320.624995278 241.036962722 320.962340259 220.31750482 346 c 2
 169.010537508 408 l 2
 144.004016079 438.218202514 149.070913121 438.984975621 176 465.9140625 c 0
 199.994512612 489.908575112 202.689857628 473.710786863 222.311365989 450 c 2
 275.273612344 386 l 2
 294.834059152 362.363000403 295.301036724 365.471613374 318 384.831705498 c 6
EndSplineSet
EndChar

StartChar: cedilla
Encoding: 184 184 128
Width: 550
Flags: HMW
LayerCount: 2
Fore
SplineSet
139.000000881 -199.792205395 m 4
 219.226141916 -199.574135696 249 -170.969906555 249 -150 c 0
 249 -121.415220772 214.239146936 -104.285460028 125 -100.049276013 c 0
 64.3243057323 -97.1689996426 84.0495287646 -90.0395912315 109.223493304 -58 c 2
 187 40.98828125 l 1
 277 40.98828125 l 1
 219.652064732 -32 l 2
 186.752065547 -73.8727262358 216.427510998 -60.8491913153 262.999988209 -73.2076395678 c 0
 313.357947074 -86.570601257 340 -109.5850155 340 -140 c 0
 340 -185.91523567 299.522389761 -240.263306806 145 -241.09291296 c 0
 90.6932732136 -241.384477145 83.1042101641 -199.944140638 139.000000881 -199.792205395 c 4
EndSplineSet
EndChar

StartChar: AE
Encoding: 198 198 526
Width: 1197
Flags: HMW
LayerCount: 2
Fore
SplineSet
740.06640625 340 m 2
 688.83984375 114 l 2
 682.34375 85.341796875 671.038085938 75 710 75 c 2
 863 75 l 2
 993.057617188 75 1051.91894531 113.751953125 1091.77246094 252 c 0
 1096.76074219 269.303710938 1094.17089844 275 1118 275 c 2
 1146 275 l 2
 1163.90039062 275 1168.70117188 277.96875 1164.92773438 262 c 2
 1110.09082031 30 l 2
 1104.66503906 7.0458984375 1107.93261719 0 1078 0 c 2
 440 0 l 2
 412.390625 0 415 3.2099609375 415 30 c 2
 415 60 l 2
 415 81.419921875 428.8125 75 448 75 c 2
 510 75 l 2
 543.231445312 75 541.055664062 79.6572265625 547.026367188 106 c 2
 567.879790146 198 l 2
 576.098136768 234.25725574 516.599432427 220 479 220 c 2
 329 220 l 2
 269.848347026 220 259.112627085 214.109334666 231.528 186 c 2
 169.704 123 l 2
 148.852849631 101.752224488 96.8669705978 75 161 75 c 0
 188.258805858 75 210 84.6233033599 210 54 c 2
 210 27 l 2
 210 -6.06733787504 201.043242198 0 170 0 c 2
 49 0 l 1
 -45 0 l 2
 -72.6089968348 0 -70 3.2104131733 -70 30 c 0
 -70 56.6150931951 -78.8072663548 75 -49 75 c 2
 -1 75 l 2
 38.6023770377 75 42.9706414896 89.0391108195 61.704 108 c 6
 621.9 675 l 1
 586 675 l 2
 556.814453125 675 559 677.602539062 559 706 c 2
 559 734 l 2
 559 754.767578125 566.95703125 750 586 750 c 2
 696 750 l 1
 785 750 l 1
 1218 750 l 2
 1257.76757812 750 1253.39746094 747.352539062 1246.26660156 716 c 2
 1208.96484375 552 l 2
 1203.13574219 526.37109375 1208.14453125 495 1174 495 c 2
 1154 495 l 2
 1113.4453125 495 1131.18847656 516.630859375 1135.140625 544 c 0
 1149.36230469 642.502929688 1121.71289062 675 1020 675 c 2
 854 675 l 2
 828.680664062 675 817.116210938 679.922851562 812.146484375 658 c 2
 769.080078125 468 l 2
 760.483398438 430.073242188 746.733398438 418 798 418 c 0
 871.875976562 418 917.630859375 445.400390625 942 494.690429688 c 0
 948.137695312 507.103515625 946.278320312 523 966 523 c 2
 998 523 l 2
 1021.39648438 523 1017.29882812 520.034179688 1013.03613281 502 c 2
 960.090820312 278 l 2
 955.568359375 258.8671875 959.396484375 248 934 248 c 2
 904 248 l 2
 878.751953125 248 893.55859375 274.474609375 892.590820312 292 c 0
 890.313476562 333.231445312 864.029296875 358 798 358 c 2
 770 358 l 2
 746.994140625 358 744.397460938 359.108398438 740.06640625 340 c 2
383 285 m 6
 548 285 l 2
 595.371071748 285 590.141953233 296.215003268 598.479921661 333 c 2
 654.920164234 582 l 2
 668.102244014 640.155984376 658.835315384 621.435443666 628.968 591 c 2
 378.728 336 l 2
 349.354747503 306.068017156 301.798392982 285 383 285 c 6
EndSplineSet
EndChar

StartChar: ae
Encoding: 230 230 529
Width: 786
VWidth: 1155
Flags: HMW
LayerCount: 2
Fore
SplineSet
403 320 m 0
 403 404 386 463 325 463 c 0
 241 463 155 354 155 180 c 0
 155 106 180 59 232 59 c 0
 323 59 403 206 403 320 c 0
481.999998098 464.524692205 m 4
 529.626897763 506.374995007 605.567776993 534.999999983 676 535 c 0
 778 535 859 494 859 422 c 0
 859 282.812655854 674.83580354 233.315667127 540.000003027 218.025645523 c 0
 493.28201433 212.727949706 481 220.817521049 481 170 c 0
 481 96 507 54 556 54 c 0
 623.745188984 54 678.832691515 93.3054474089 717.999993853 140.378709422 c 0
 730.543448405 155.454072989 732.527900784 173 760 173 c 2
 794 173 l 2
 820.924832509 173 799.942428815 154.225501348 792 141.535582368 c 0
 741.963915007 61.5910365079 658.491275547 -15 525 -15 c 0
 463.738463862 -15 403.558970797 1.66180396858 378.000000917 33.6873064105 c 0
 347.572309753 71.8133381819 375.056123921 79.7025993322 334.000036581 42.5244872172 c 0
 294.880558552 7.10006091882 245.785747178 -15 187 -15 c 0
 98 -15 15 40 15 180 c 0
 15 410 178 534 297 534 c 0
 360.67302664 534 398.870238952 511.293295925 420.771811153 472.000003897 c 0
 457.736374715 405.682418229 427.10362557 416.28662025 481.999998098 464.524692205 c 4
723 422 m 0
 723 461 705 473 676 473 c 0
 617.231331375 473 551.050232627 412.392483113 512.87051334 324.000004563 c 0
 498.838064639 291.512523147 477.557049872 264.657416073 529.999997682 271.293831843 c 4
 620.432439756 282.737644783 723 317.830766391 723 422 c 0
EndSplineSet
EndChar

StartChar: perthousand
Encoding: 8240 8240 537
Width: 1490
Flags: HMW
LayerCount: 2
Back
SplineSet
1090 140 m 4
 1090 78 1104 40 1148 40 c 4
 1242 40 1300 158 1300 280 c 4
 1300 342 1286 380 1242 380 c 4
 1148 380 1090 262 1090 140 c 4
985 160 m 4
 985 323 1112 430 1245 430 c 4
 1328 430 1405 383 1405 260 c 4
 1405 97 1258 -10 1145 -10 c 4
 1062 -10 985 37 985 160 c 4
620 140 m 4
 620 78 634 40 678 40 c 4
 772 40 830 158 830 280 c 4
 830 342 816 380 772 380 c 4
 678 380 620 262 620 140 c 4
515 160 m 4
 515 323 642 430 775 430 c 4
 858 430 935 383 935 260 c 4
 935 97 788 -10 675 -10 c 4
 592 -10 515 37 515 160 c 4
781 750 m 5
 845 750 l 5
 224 0 l 5
 155 0 l 5
 781 750 l 5
170 470 m 4
 170 408 184 370 228 370 c 4
 322 370 380 488 380 610 c 4
 380 672 366 710 322 710 c 4
 228 710 170 592 170 470 c 4
65 490 m 4
 65 653 192 760 325 760 c 4
 408 760 485 713 485 590 c 4
 485 427 338 320 225 320 c 4
 142 320 65 367 65 490 c 4
EndSplineSet
Fore
SplineSet
1135 160 m 0
 1135 98 1139 40 1173 40 c 0
 1237 40 1285 138 1285 260 c 0
 1285 322 1281 380 1247 380 c 0
 1183 380 1135 282 1135 160 c 0
990 160 m 0
 990 323 1127 435 1260 435 c 0
 1343 435 1430 383 1430 260 c 0
 1430 97 1273 -15 1160 -15 c 0
 1077 -15 990 37 990 160 c 0
655 160 m 0
 655 98 659 40 693 40 c 0
 757 40 805 138 805 260 c 0
 805 322 801 380 767 380 c 0
 703 380 655 282 655 160 c 0
510 160 m 0
 510 323 647 435 780 435 c 0
 863 435 950 383 950 260 c 0
 950 97 793 -15 680 -15 c 0
 597 -15 510 37 510 160 c 0
797 748 m 6
 827 748 l 6
 867.354492188 748 827.71484375 720.64453125 815.784179688 706 c 6
 263.440429688 28 l 6
 249.256835938 10.58984375 247.3125 -2 214 -2 c 6
 192 -2 l 6
 146.859375 -2 168.522460938 8.376953125 184.639648438 28 c 6
 741.50390625 706 l 6
 756.330078125 724.051757812 763.586914062 748 797 748 c 6
205 490 m 0
 205 428 209 370 243 370 c 0
 307 370 355 468 355 590 c 0
 355 652 351 710 317 710 c 0
 253 710 205 612 205 490 c 0
60 490 m 0
 60 653 197 765 330 765 c 0
 413 765 500 713 500 590 c 0
 500 427 343 315 230 315 c 0
 147 315 60 367 60 490 c 0
EndSplineSet
EndChar

StartChar: uni2031
Encoding: 8241 8241 538
Width: 1970
Flags: HMW
LayerCount: 2
Fore
SplineSet
797 748 m 6
 827 748 l 6
 867.354492188 748 827.71484375 720.64453125 815.784179688 706 c 6
 263.440429688 28 l 6
 249.256835938 10.58984375 247.3125 -2 214 -2 c 6
 192 -2 l 6
 146.859375 -2 168.522460938 8.376953125 184.639648438 28 c 6
 741.50390625 706 l 6
 756.330078125 724.051757812 763.586914062 748 797 748 c 6
1615 160 m 0
 1615 98 1619 40 1653 40 c 0
 1717 40 1765 138 1765 260 c 0
 1765 322 1761 380 1727 380 c 0
 1663 380 1615 282 1615 160 c 0
1470 160 m 0
 1470 323 1607 435 1740 435 c 0
 1823 435 1910 383 1910 260 c 0
 1910 97 1753 -15 1640 -15 c 0
 1557 -15 1470 37 1470 160 c 0
1135 160 m 0
 1135 98 1139 40 1173 40 c 0
 1237 40 1285 138 1285 260 c 0
 1285 322 1281 380 1247 380 c 0
 1183 380 1135 282 1135 160 c 0
990 160 m 0
 990 323 1127 435 1260 435 c 0
 1343 435 1430 383 1430 260 c 0
 1430 97 1273 -15 1160 -15 c 0
 1077 -15 990 37 990 160 c 0
655 160 m 0
 655 98 659 40 693 40 c 0
 757 40 805 138 805 260 c 0
 805 322 801 380 767 380 c 0
 703 380 655 282 655 160 c 0
510 160 m 0
 510 323 647 435 780 435 c 0
 863 435 950 383 950 260 c 0
 950 97 793 -15 680 -15 c 0
 597 -15 510 37 510 160 c 0
205 490 m 0
 205 428 209 370 243 370 c 0
 307 370 355 468 355 590 c 0
 355 652 351 710 317 710 c 0
 253 710 205 612 205 490 c 0
60 490 m 0
 60 653 197 765 330 765 c 0
 413 765 500 713 500 590 c 0
 500 427 343 315 230 315 c 0
 147 315 60 367 60 490 c 0
EndSplineSet
EndChar

StartChar: uniFB00
Encoding: 64256 64256 542
Width: 775
VWidth: 1155
Flags: HMW
LayerCount: 2
Fore
SplineSet
136 542 m 4
 161.866688113 673.6157954 233 770 413 770 c 0
 504.120026793 770 557.36902313 741.232582635 585.272213839 708.088975197 c 1
 629.286617095 764.765593374 695.568794372 800 792 800 c 0
 933 800 980 721 980 674 c 0
 980 606 931 577 887 577 c 0
 849 577 812 598 812 645 c 0
 812 701 849 706 849 718 c 0
 849 730 826 740 794 740 c 0
 714 740 680.576923077 677.884615385 655 550 c 0
 649.840683346 524.20341673 644.360544298 520 677 520 c 2
 761 520 l 2
 776.974943245 520 775 517.431425231 775 502 c 2
 775 477 l 2
 775 457.006070096 776.697750328 455 756 455 c 2
 666 455 l 2
 637.847115222 455 636.088216747 455.441083736 631.4 432 c 2
 531.2 -69 l 2
 525.67010475 -96.6494762485 527.246063077 -100 493 -100 c 2
 424 -100 l 2
 388.669914933 -100 396.270749284 -93.4312037001 401.577380952 -66 c 2
 496.755952381 426 l 2
 502.122694246 453.741927182 504.466722588 455 471 455 c 2
 290 455 l 2
 261.310667861 455 253.603123827 458.927154146 248.543283582 434 c 2
 135.480597015 -123 l 2
 130.094634151 -149.533787636 129.180291939 -150 97 -150 c 2
 36 -150 l 2
 -11.2850690486 -150 2.7786543775 -135.861552726 9.82658959538 -100 c 2
 114.184971098 431 l 2
 118.189908378 451.378063217 122.765986124 455 97 455 c 2
 71 455 l 2
 49.8467989035 455 45 451.431066272 45 474 c 2
 45 497 l 2
 45 519.380247314 44.4815187938 520 67 520 c 2
 106 520 l 2
 131.507928187 520 131.82276452 520.745242997 136 542 c 4
301 520 m 6
 492 520 l 2
 509.657026556 520 514.459778165 517.515160974 517.455357143 533 c 0
 520.893912374 550.774685502 515.837272527 545.495507939 499.000001076 548.822182078 c 0
 468.554423714 554.837557856 443 575.940197623 443 615 c 0
 443 671 480 676 480 688 c 0
 480 700 447 710 415 710 c 0
 341.57109147 710 302.683431209 656.92442339 273.592373757 550 c 0
 265.759010534 521.208408381 264.37710196 520 301 520 c 6
EndSplineSet
LCarets2: 1 0
Ligature2: "Not your mama's contextual ligatures" f f
EndChar

StartChar: uniFB01
Encoding: 64257 64257 543
Width: 713
VWidth: 1155
Flags: HMW
LayerCount: 2
Fore
SplineSet
618.201995012 491 m 2
 531 119 l 2
 529.599609375 113.094726562 529 106 529 101 c 0
 529 90 534 82 547 82 c 0
 575.605837119 82 597.897677962 102.836187708 618.892665559 141.99999161 c 0
 627.127884988 157.361873456 627.758497168 177.776217676 650 172.320754717 c 2
 669 167.660377358 l 2
 694.838608553 161.322605449 684.73711266 150.228289774 676.000001406 129.754134228 c 0
 634.399914982 32.270353206 553.124927042 -15 480 -15 c 0
 433 -15 395 8 395 58 c 0
 395 77 398.448242188 94.6845703125 402 110 c 2
 472.263609947 413 l 2
 481.132398452 451.245158754 487.180345161 455 438 455 c 2
 281 455 l 2
 249.294285538 455 253.447913692 445.955445411 248.278571429 421 c 2
 137.25 -115 l 2
 131.630235095 -142.129899542 135.566161949 -150 101 -150 c 2
 27 -150 l 2
 -9.60941744867 -150 2.60650000378 -137.021427567 8.03324099723 -110 c 2
 113.871191136 417 l 2
 118.989898389 442.487631978 130.775793923 455 96 455 c 2
 67 455 l 2
 45.6168791064 455 45 454.482000079 45 476 c 2
 45 491 l 2
 45 518.804734269 43.9756329881 520 72 520 c 2
 104 520 l 2
 133.685523951 520 134.624305127 520.336195186 139.577562327 545 c 2
 145 572 l 2
 175 703 252 800 422 800 c 0
 573 800 620 721 620 674 c 0
 620 606 571 577 527 577 c 0
 489 577 452 598 452 645 c 0
 452 701 489 706 489 718 c 0
 489 730 456 740 424 740 c 0
 344 740 305 677 275 550 c 0
 270.090698109 526.299921905 262.760220836 520 294 520 c 0
 393.333333333 520 492.666666667 520 592 520 c 4
 616.82812476 520 624.818174212 519.224338926 618.201995012 491 c 2
EndSplineSet
LCarets2: 1 0
Ligature2: "Not your mama's contextual ligatures" f i
EndChar

StartChar: uniFB02
Encoding: 64258 64258 544
Width: 743
VWidth: 1155
Flags: HMW
LayerCount: 2
Fore
SplineSet
695.414523449 736 m 2
 561 119 l 2
 559.599609375 113.094726562 559 106 559 101 c 0
 559 90 564 82 577 82 c 0
 606.327736571 82 629.018774589 103.901105222 650.479762579 144.999991405 c 0
 660.127613737 163.476118266 658.430503515 177.61138593 684 171.339622642 c 2
 701 167.169811321 l 2
 723.51922913 161.646226817 715.580303292 153.284814305 708.180416023 134.99998061 c 0
 667.291767887 33.965721037 584.424701096 -15 510 -15 c 0
 463 -15 425 8 425 58 c 0
 425 77 428.448242188 94.6845703125 432 110 c 2
 526.440732422 549 l 2
 533.237583031 580.594602677 531.009124679 572.473732678 501.000001063 579.467705717 c 0
 471.894232152 586.251141502 448 607.230299995 448 645 c 0
 448 701 485 706 485 718 c 0
 485 730 452 740 420 740 c 0
 340 740 301 677 271 550 c 0
 266.106563083 525.706341546 259.277454563 520 291 520 c 2
 365 520 l 2
 388.030953596 520 395 524.701586115 395 500 c 2
 395 484 l 2
 395 454.066735958 393.908852659 455 364 455 c 2
 287 455 l 2
 252.099007054 455 251.653992807 453.955992661 245.821428571 425 c 2
 137.654285714 -112 l 2
 131.874831797 -140.69232441 136.424285985 -150 100 -150 c 2
 28 -150 l 2
 -10.4026232191 -150 2.84972683029 -135.407781763 8.39750692521 -107 c 6
 109.948753463 413 l 2
 114.838253079 438.03701222 128.784285694 455 94 455 c 2
 76 455 l 2
 44.580801204 455 45 455.537206731 45 487 c 2
 45 500 l 2
 45 524.623612647 51.9021439584 520 75 520 c 2
 98 520 l 2
 130.531163113 520 131.01277884 520.859761152 136.313019391 548 c 2
 141 572 l 2
 167 704 238 800 418 800 c 0
 498.087490133 800 548.919393586 777.777006272 579.000000416 749.892004716 c 0
 602.269698813 728.320778454 600.049417919 728.955354778 631 744.008739432 c 2
 671 763.463474874 l 2
 707.702228772 781.314278646 704.894406186 779.515295062 695.414523449 736 c 2
EndSplineSet
LCarets2: 1 0
Ligature2: "Not your mama's contextual ligatures" f l
EndChar

StartChar: uniFB03
Encoding: 64259 64259 545
Width: 1093
VWidth: 1155
Flags: HMW
LayerCount: 2
Fore
SplineSet
301 520 m 6
 487 520 l 2
 502.586345416 520 513.741762596 515.958996033 516.5625 530 c 0
 521.546865375 554.811063198 507.862077921 544.730517264 487.00000101 552.086065459 c 0
 462.126710381 560.855886832 443 581.207747877 443 615 c 0
 443 671 480 676 480 688 c 0
 480 700 447 710 415 710 c 0
 342.261093236 710 303.417325666 657.917225139 274.415083929 553 c 0
 266.311583933 523.685137334 262.013588265 520 301 520 c 6
999.842892768 498 m 6
 911 119 l 2
 909.599609375 113.094726562 909 106 909 101 c 0
 909 90 914 82 927 82 c 0
 954.363165837 82 975.94899491 101.065211321 996.148771217 136.999991964 c 0
 1006.20519852 154.890066764 1006.45994715 178.094729945 1033 171.58490566 c 2
 1051 167.169811321 l 2
 1073.84871199 161.565410266 1065.30031866 152.41005835 1057.77365118 133.999980674 c 0
 1016.74413546 33.642608186 934.178739438 -15 860 -15 c 0
 813 -15 775 8 775 58 c 0
 775 77 778.448242188 94.6845703125 782 110 c 2
 855.510113377 427 l 2
 861.823694732 454.22625769 863.781095611 455 830 455 c 2
 665 455 l 2
 636.249690953 455 635.216381724 454.745541634 630.284615385 431 c 2
 528.515384615 -59 l 2
 522.153774394 -89.6299751386 527.090639477 -100 488 -100 c 2
 424 -100 l 2
 379.343170181 -100 392.665913594 -86.7296745568 399.441964286 -53 c 2
 497.075892857 433 l 2
 501.746264844 456.248073891 500.628723106 455 473 455 c 2
 290 455 l 2
 256.42932702 455 253.106416312 456.480139184 247.325373134 428 c 2
 134.465671642 -128 l 2
 130.151458961 -149.253841881 129.794386052 -150 104 -150 c 2
 19 -150 l 2
 -6.6624197143 -150 1.76079222786 -141.040674841 5.50289017341 -122 c 2
 113.988439306 430 l 2
 118.170525129 451.279436688 122.89307481 455 96 455 c 2
 62 455 l 2
 39.0088676337 455 45 466.0508255 45 487 c 2
 45 504 l 2
 45 525.337266074 54.5130721976 520 74 520 c 2
 107 520 l 2
 132.013457354 520 131.907250438 521.175127228 136 542 c 0
 161.903876468 673.805018498 233 770 413 770 c 0
 504.472387965 770 557.78028459 741.009665232 585.594782465 707.704281265 c 1
 630.554804242 764.606113228 699.310229596 800 802 800 c 0
 953 800 1000 721 1000 674 c 0
 1000 606 951 577 907 577 c 0
 869 577 832 598 832 645 c 0
 832 701 869 706 869 718 c 0
 869 730 836 740 804 740 c 0
 724 740 685 677 655 550 c 0
 649.284528087 522.481061158 645.380916169 520 680 520 c 2
 975 520 l 2
 1003.58328497 520 1005.40480338 521.726873992 999.842892768 498 c 6
EndSplineSet
LCarets2: 2 0 0
Ligature2: "Not your mama's contextual ligatures" f f i
EndChar

StartChar: uniFB04
Encoding: 64260 64260 546
Width: 1127
VWidth: 1155
Flags: HMW
LayerCount: 2
Fore
SplineSet
1080.93948563 743 m 2
 945 119 l 2
 943.599609375 113.094726562 943 106 943 101 c 0
 943 90 948 82 961 82 c 0
 991.723936702 82 1015.16422922 106.036025813 1037.53705041 150.99999101 c 0
 1048.38676808 172.805302188 1047.20116902 176.441222693 1075 169.622641509 c 0
 1101.98468754 163.003755885 1102.94864447 162.147726764 1093.00000133 137.046339903 c 0
 1052.40721584 34.6268241541 968.925433424 -15 894 -15 c 0
 847 -15 809 8 809 58 c 0
 809 77 812.448242188 94.6845703125 816 110 c 2
 911.086113281 552 l 2
 916.868197522 578.877544432 917.046247522 573.721530015 890.000001084 578.449889842 c 0
 858.681933764 583.925070722 832 605.087801876 832 645 c 0
 832 701 869 706 869 718 c 0
 869 730 836 740 804 740 c 0
 724 740 685 677 655 550 c 0
 649.947846836 525.674818101 643.060550309 520 675 520 c 2
 756 520 l 2
 781.0702272 520 785 523.088952857 785 497 c 2
 785 478 l 2
 785 451.175847555 779.827060855 455 754 455 c 2
 660 455 l 2
 632.058973964 455 634.329953078 450.477551856 629.661538462 428 c 2
 528.1 -61 l 2
 521.629181302 -92.1557937333 525.681699094 -100 486 -100 c 2
 425 -100 l 2
 384.070256076 -100 391.101393203 -94.5175093918 397.633928571 -62 c 2
 494.0625 418 l 2
 502.556308352 460.280290465 495.310218967 455 447 455 c 2
 284 455 l 2
 251.340918965 455 252.292187715 452.46886595 246.919402985 426 c 2
 141.570149254 -93 l 2
 131.648390923 -141.879250598 135.774934758 -150 75 -150 c 2
 50 -150 l 2
 -12.0966732556 -150 2.58570357619 -136.843331804 11.9884393064 -89 c 2
 113.202312139 426 l 2
 117.6731255 448.748550336 124.726329483 455 95 455 c 2
 69 455 l 2
 44.5593273893 455 45 455.539348568 45 480 c 2
 45 497 l 2
 45 522.576051197 48.205658799 520 73 520 c 2
 106 520 l 2
 131.507928187 520 131.82276452 520.745242997 136 542 c 0
 161.903876468 673.805018498 233 770 413 770 c 0
 502.857281396 770 555.885896239 742.024378292 584.097526883 709.464305773 c 1
 627.173115207 765.335037237 694.395110221 800 802 800 c 0
 881.206706134 800 931.797779671 778.263125239 962.000000419 750.809946922 c 0
 983.245414789 731.498315702 979.297047919 726.643952251 1008 740.60416073 c 2
 1050 761.031632944 l 2
 1083.07648342 777.118988799 1086.61913804 769.071182233 1080.93948563 743 c 2
292 520 m 2
 478 520 l 2
 497.265425909 520 514.627889404 520.369938366 516.964285714 532 c 0
 520.839433464 551.289624356 514.842995446 545.296691054 497.000001067 549.240673007 c 4
 467.443547567 555.773775958 443 576.798614509 443 615 c 0
 443 671 480 676 480 688 c 0
 480 700 447 710 415 710 c 0
 341.80036417 710 302.926611795 657.255349814 273.865160744 551 c 0
 267.527279303 527.8272476 259.258489202 520 292 520 c 2
EndSplineSet
LCarets2: 2 0 0
Ligature2: "Not your mama's contextual ligatures" f f l
EndChar

StartChar: uniFFFD
Encoding: 65533 65533 547
Width: 824
Flags: HMW
LayerCount: 2
Fore
SplineSet
694 0 m 2
 622 0 l 2
 538 0 484 28 484 88 c 0
 484 139 509 203 509 255 c 0
 509 306 492 335 427 335 c 2
 308 335 l 2
 275.096348741 335 273.478325716 335.054651793 267.706666667 308 c 2
 224.613333333 106 l 2
 218.594340588 77.7859715075 214.280427995 75 250 75 c 2
 282 75 l 2
 305.40133327 75 310 78.4422239318 310 54 c 2
 310 26 l 2
 310 -0.93990712005 308.905247017 0 282 0 c 2
 -16 0 l 2
 -36.0582856598 0 -40 -2.95047765584 -40 18 c 2
 -40 48 l 2
 -40 75.4316030509 -39.4617073283 75 -12 75 c 2
 40 75 l 2
 77.0204579801 75 78.1247426456 75.5847311515 84.6133333333 106 c 2
 199.386666667 644 l 2
 205.405659412 672.214028493 209.719572005 675 174 675 c 2
 138 675 l 2
 109.571469298 675 110 675.53799156 110 704 c 2
 110 726 l 2
 110 756.224447203 119.751591263 750 148 750 c 2
 519 750 l 2
 690 750 759 690 759 580 c 0
 759 483.244746119 701.292554179 419.636424296 604.000009621 385.400649146 c 0
 554.653115528 368.036223349 565.485351562 371.579101562 608.552734375 341 c 4
 640.850585938 318.067382812 654.999999996 291.101354589 655 257 c 0
 655 197 628 149 628 109 c 0
 628 88 635 75 658 75 c 2
 690 75 l 2
 709.971225523 75 717 79.4977868997 717 58 c 2
 717 30 l 2
 717 4.58917880564 720.501845292 0 694 0 c 2
330 415 m 2
 449 415 l 2
 525 415 619 471 619 580 c 0
 619 639 595 675 519 675 c 2
 382 675 l 2
 345.942718706 675 345.70015403 673.594472017 339.386666667 644 c 2
 297.146666667 446 l 2
 290.255585653 413.698057747 291.113433125 415 330 415 c 2
EndSplineSet
EndChar

StartChar: uniFFF0
Encoding: 65520 65520 548
Width: 395
VWidth: 1155
Flags: HMW
LayerCount: 2
Fore
SplineSet
99 455 m 6
 55 455 l 2
 31.1875907626 455 30 453.981187174 30 478 c 2
 30 503 l 2
 30 523.394195633 34.7968629659 520 54 520 c 2
 115 520 l 2
 141.823186228 520 140.539901088 523.252777844 145.879903415 544 c 0
 150.83536767 563.253197188 156.720934708 558.444431946 175.999994165 563.081452439 c 0
 206.789691762 570.487024224 229.288903801 589.677804199 241.999997676 603.281254112 c 0
 257.310400184 619.666491742 249.2524695 618 272 618 c 0
 299.605734653 618 289.382049875 608.083546258 284.347740127 589 c 2
 272.476574482 544 l 2
 265.965186987 519.317298564 266.015776392 520 297 520 c 2
 343 520 l 2
 369.74438088 520 375 523.933970208 375 496 c 2
 375 477 l 2
 375 449.914026088 367.407641646 455 342 455 c 2
 280 455 l 2
 240.716126387 455 245.615922277 442.179388151 237.918292274 413 c 2
 162.998046875 129 l 2
 160.049804688 116.994140625 158.998046875 110 158.998046875 101 c 0
 158.998046875 90 163.998046875 82 176.998046875 82 c 0
 206.562752571 82 229.383076918 104.256458454 250.997787963 145.999991338 c 0
 259.710107047 162.825706816 258.507778309 177.591952667 282 171.829709611 c 2
 299 167.65989829 l 2
 323.067329465 161.756591063 316.168205273 154.653207837 308.000001359 134.55999503 c 0
 267.049071801 33.8235600728 184.314631746 -15 109.998046875 -15 c 0
 62.998046875 -15 24.998046875 8 24.998046875 58 c 0
 24.998046875 66 25.87890625 77.0283203125 27.998046875 86 c 2
 117.052899196 432 l 2
 122.361895798 452.62675729 126.182442054 455 99 455 c 6
EndSplineSet
EndChar
